<svg xmlns="http://www.w3.org/2000/svg" viewBox="0 0 447.74 410.39"><defs><style>.cls-1{fill:#89b6d2;}.cls-2{fill:#efd0b1;}.cls-10,.cls-14,.cls-3{fill:#3578b5;}.cls-4,.cls-5{fill:#103f72;}.cls-5{font-size:39.1px;}.cls-10,.cls-14,.cls-5{font-family:Roboto-Black, Roboto;font-weight:800;}.cls-6{letter-spacing:-0.04em;}.cls-7{letter-spacing:-0.01em;}.cls-8{letter-spacing:0.01em;}.cls-9{letter-spacing:-0.06em;}.cls-10{font-size:23px;}.cls-11{letter-spacing:-0.03em;}.cls-12{letter-spacing:-0.01em;}.cls-13{letter-spacing:0em;}.cls-14{font-size:14.81px;}.cls-15{letter-spacing:-0.01em;}.cls-16{letter-spacing:-0.01em;}</style></defs><g id="OBJECTS"><path class="cls-1" d="M169.53,201.81s-27.26,17.09-31.62,24.36-6.44,12.63,7.28,19.19,34.93-8.86,40.48-12.9,50.09-6.34,50.09-6.34l-4.42-22.31-25.59-14.1Z" transform="translate(-52.26 -36.92)"/><path class="cls-2" d="M119.48,141.38s3.45-22.22,29.89-28.93L232.27,195l-27,30Z" transform="translate(-52.26 -36.92)"/><ellipse class="cls-2" cx="221.03" cy="210.78" rx="26.99" ry="11.4" transform="translate(-136.6 168.42) rotate(-42.62)"/><polygon class="cls-2" points="172.17 182.81 205.38 217.15 213.85 211.44 179.03 175.76 172.17 182.81"/><path class="cls-2" d="M123.07,136.79l-8.19-7.52s-1.48-5.82,6.17-13.68,14.39-6.88,14.39-6.88l9.62,9.46Z" transform="translate(-52.26 -36.92)"/><polygon class="cls-2" points="69.34 82.01 0 11.39 74.13 77.36 69.34 82.01"/><path class="cls-3" d="M140,154.18a288.53,288.53,0,0,1,28-15.69l55,54.12s-15.18,14.57-20.12,24h0Z" transform="translate(-52.26 -36.92)"/><path class="cls-1" d="M242,199.66h0Z" transform="translate(-52.26 -36.92)"/><path class="cls-1" d="M242.18,199.64h0Z" transform="translate(-52.26 -36.92)"/><path class="cls-1" d="M242.3,199.62h0Z" transform="translate(-52.26 -36.92)"/><path class="cls-1" d="M242.43,199.6h0Z" transform="translate(-52.26 -36.92)"/><path class="cls-1" d="M243.1,199.51l.13,0Z" transform="translate(-52.26 -36.92)"/><path class="cls-1" d="M243.27,199.48l.14,0Z" transform="translate(-52.26 -36.92)"/><path class="cls-1" d="M243.49,199.45l.12,0Z" transform="translate(-52.26 -36.92)"/><path class="cls-1" d="M243.72,199.42h0Z" transform="translate(-52.26 -36.92)"/><path class="cls-1" d="M243.85,199.4h0Z" transform="translate(-52.26 -36.92)"/><path class="cls-1" d="M244,199.39h0Z" transform="translate(-52.26 -36.92)"/><path class="cls-1" d="M244.17,199.36l.09,0Z" transform="translate(-52.26 -36.92)"/><path class="cls-1" d="M244.51,199.31l.17,0Z" transform="translate(-52.26 -36.92)"/><path class="cls-1" d="M244.86,199.26l.24,0Z" transform="translate(-52.26 -36.92)"/><path class="cls-1" d="M245.2,199.21l.14,0Z" transform="translate(-52.26 -36.92)"/><path class="cls-1" d="M245.38,199.18h0Z" transform="translate(-52.26 -36.92)"/><path class="cls-1" d="M245.56,199.16l.17,0Z" transform="translate(-52.26 -36.92)"/><path class="cls-1" d="M245.76,199.13h0Z" transform="translate(-52.26 -36.92)"/><path class="cls-1" d="M245.82,199.12h0Z" transform="translate(-52.26 -36.92)"/><path class="cls-1" d="M245.91,199.11h0Z" transform="translate(-52.26 -36.92)"/><path class="cls-1" d="M246,199.1h0Z" transform="translate(-52.26 -36.92)"/><path class="cls-4" d="M220.59,203.16a98.18,98.18,0,0,0-9.93,10.26c-2.62,3.14-5.25,6.48-6.73,10.33a15.19,15.19,0,0,0-1.08,6.39c0,.71,1.15.61,1.11-.11-.23-3.83,1.42-7.44,3.49-10.57a74.27,74.27,0,0,1,8.23-10c1.78-1.87,3.64-3.67,5.56-5.4C221.77,203.59,221.12,202.68,220.59,203.16Z" transform="translate(-52.26 -36.92)"/><path class="cls-4" d="M206,210a37.5,37.5,0,0,0-5.81,9.88c-.27.66.75,1.12,1,.46a36.79,36.79,0,0,1,5.66-9.64A.55.55,0,0,0,206,210Z" transform="translate(-52.26 -36.92)"/><path class="cls-4" d="M233.17,213.67c-1.44-1.39-2.92-2.75-4.42-4.08a.5.5,0,0,0-.56-.08.52.52,0,0,0-.58-.15,10,10,0,0,0-6.54,7.07.66.66,0,0,0,0,.24.54.54,0,0,0,.19.44,56.37,56.37,0,0,1,4.08,4.24c.46.53,1.37-.12.9-.66a57.09,57.09,0,0,0-4-4.2,8.85,8.85,0,0,1,5.8-6.08l.05.05c1.5,1.33,3,2.68,4.42,4.07C233,215,233.68,214.16,233.17,213.67Z" transform="translate(-52.26 -36.92)"/><path class="cls-4" d="M139.15,114.22a40.44,40.44,0,0,0-15.59,14.09,41.38,41.38,0,0,0-2.84,5.24.56.56,0,0,0,1,.46,39.31,39.31,0,0,1,12.81-15.69,38.16,38.16,0,0,1,5-3C140.17,114.94,139.78,113.9,139.15,114.22Z" transform="translate(-52.26 -36.92)"/><path class="cls-4" d="M134,134.47a38.81,38.81,0,0,0-6.39,9.12c-.32.65.7,1.1,1,.46a37.89,37.89,0,0,1,6.23-8.88C135.33,134.65,134.47,134,134,134.47Z" transform="translate(-52.26 -36.92)"/><path class="cls-4" d="M141.27,141.23a38.85,38.85,0,0,0-6.38,9.12c-.32.64.69,1.09,1,.46a37.4,37.4,0,0,1,6.23-8.88C142.63,141.4,141.76,140.71,141.27,141.23Z" transform="translate(-52.26 -36.92)"/><path class="cls-4" d="M149.43,148.31a38.77,38.77,0,0,0-6.38,9.12c-.33.64.69,1.1,1,.46A37.64,37.64,0,0,1,150.3,149C150.79,148.49,149.92,147.79,149.43,148.31Z" transform="translate(-52.26 -36.92)"/><path class="cls-4" d="M157,155.62a39.12,39.12,0,0,0-6.38,9.13c-.32.64.69,1.09,1,.45a38.1,38.1,0,0,1,6.23-8.88C158.4,155.8,157.53,155.1,157,155.62Z" transform="translate(-52.26 -36.92)"/><path class="cls-4" d="M164.77,162.84a38.56,38.56,0,0,0-6.38,9.12c-.33.64.69,1.1,1,.46a37.89,37.89,0,0,1,6.23-8.88C166.13,163,165.26,162.32,164.77,162.84Z" transform="translate(-52.26 -36.92)"/><path class="cls-4" d="M171.68,169.18a39.06,39.06,0,0,0-6.38,9.12c-.32.64.69,1.1,1,.46a37.89,37.89,0,0,1,6.23-8.88C173,169.36,172.17,168.66,171.68,169.18Z" transform="translate(-52.26 -36.92)"/><path class="cls-4" d="M178.62,176.59a39.12,39.12,0,0,0-6.38,9.13c-.32.64.69,1.09,1,.45a38.1,38.1,0,0,1,6.23-8.88C180,176.77,179.11,176.07,178.62,176.59Z" transform="translate(-52.26 -36.92)"/><path class="cls-1" d="M434.46,239.4c-3.61-2.33-74-56.42-96.82-72.74a21.25,21.25,0,0,0-2.43-1.1,65.43,65.43,0,0,0-9.83-1.62,116.24,116.24,0,0,0-11.95-.23c-9.52.14-19.05-.07-28.55-.8-4.77-.37-9.52-.88-14.26-1.56-4.91-.71-9.8-1.54-14.71-2.28-8.83-1.34-17.67-2.66-26.46-4.22h-.8c-9.73,2-18.09,3.87-20,4.12-4.22.54-39.08,29.61-42.69,33.52s-12,11.22,2.23,17.37,31.16,5.87,53.64-12.52c0,0,11.08,3.62,20.12,2.34,0,0-1.8,7.1-8.79,15l32.92,33.7-9.44,4.71-23.62-24.42s-12.29,5.8-21.88,26.14-25.42,42.44-18.72,48.78,14.71,7.29,25.52,1c0,0,13.29,5.53,25.74-.42s14.49-14.7,14.49-14.7,5,1,19.34-1.52,38-7.35,41.15-7.38,14.76,5.72,23.48,3.64c0,0,35.18,42.78,71.78,37.07L500,375.63V267S438.55,242,434.46,239.4Z" transform="translate(-52.26 -36.92)"/><path class="cls-4" d="M315.51,208.16c-2,2.68-3.14,5.86-4.25,9s-2.23,6.26-4.42,8.74a17.53,17.53,0,0,1-5,3.65l-1.06.57a.42.42,0,0,0-.23-.15,91.55,91.55,0,0,1-35.6-21,88,88,0,0,1-7.81-8.46h.25a.56.56,0,0,0-.11-1.11,132.59,132.59,0,0,1-27.81-.7,66.6,66.6,0,0,1-6.73-1.3c2.41-2,4.74-4.15,7-6.32.51-.49-.14-1.4-.66-.9-7.79,7.43-16.33,14.44-26.3,18.73-8.28,3.55-17.52,5-26.41,3.19a31.88,31.88,0,0,1-13.11-5.89c-.57-.44-1.27.43-.7.87,7.07,5.46,16.2,7.44,25,6.8,10.13-.75,19.54-5.06,27.8-10.8,2.17-1.51,4.28-3.13,6.33-4.81h0a74.77,74.77,0,0,0,13.54,2.17c4.7.37,9.42.51,14.13.43,2.2,0,4.39-.13,6.59-.27a.49.49,0,0,0,.11.39A92.66,92.66,0,0,0,289,226.65a90,90,0,0,0,10.5,4.12l-3.89,2-.43.23a.47.47,0,0,0-.34-.17,80.71,80.71,0,0,1-17.89-3.43,83.06,83.06,0,0,1-16.72-7.36,80.7,80.7,0,0,1-8.54-5.75c-.57-.44-1.27.43-.7.87a82,82,0,0,0,15.76,9.51,83.38,83.38,0,0,0,17.57,5.79,80.46,80.46,0,0,0,9.26,1.38L283,239.45l-25.06,13.21a38.86,38.86,0,0,0-5.64,3.33,14.71,14.71,0,0,0-3.93,4.66,20.36,20.36,0,0,0-2.31,7.49,41.85,41.85,0,0,1-4.05,3.35c-.73.53-1.49,1-2.25,1.53a4.27,4.27,0,0,0-1.09.71,2.38,2.38,0,0,0-.25,1,41.31,41.31,0,0,1-2.62,8.58,43.7,43.7,0,0,1-10.1,14.53,42.77,42.77,0,0,1-8.07,6c-.62.35,0,1.25.66.9a44.17,44.17,0,0,0,19.13-22.43,42,42,0,0,0,2.18-7.86,43.49,43.49,0,0,0,6.35-4.68,19.64,19.64,0,0,0,0,2,21.16,21.16,0,0,0,11.83,17.66,20.45,20.45,0,0,0,2.58,1c.68.23,1.14-.79.46-1a19.95,19.95,0,0,1-12.09-27.07,14.26,14.26,0,0,1,3.49-4.92,27.64,27.64,0,0,1,5.41-3.4l24.66-13,12.28-6.47,6.09-3.22a30.59,30.59,0,0,0,5.57-3.37c5.17-4.32,5.72-11.52,8.82-17.12a17.88,17.88,0,0,1,1.31-2C316.8,208.29,315.94,207.59,315.51,208.16Z" transform="translate(-52.26 -36.92)"/><path class="cls-4" d="M249.34,215.8a.51.51,0,0,0-.1.49l-.39.13-1,.36-1.95.67-4,1.34c-.68.22-.28,1.26.4,1q3.19-1.05,6.38-2.15c.63-.22,1.93-.4,2.07-1.24A.78.78,0,0,0,249.34,215.8Z" transform="translate(-52.26 -36.92)"/><path class="cls-4" d="M360.42,269.06a269.21,269.21,0,0,1-30,8.58q-4.32,1-8.67,1.8c-.7.14-.6,1.25.1,1.11a274.89,274.89,0,0,0,30.48-7.63q4.27-1.34,8.52-2.81C361.49,269.87,361.1,268.83,360.42,269.06Z" transform="translate(-52.26 -36.92)"/><path class="cls-4" d="M375,269.93a84.68,84.68,0,0,1-25.61,8.54c-.7.11-.6,1.22.1,1.11a85.53,85.53,0,0,0,25.9-8.61C376,270.64,375.62,269.59,375,269.93Z" transform="translate(-52.26 -36.92)"/><path class="cls-4" d="M441.71,305.71a66.82,66.82,0,0,1-21.44,12.55,68.15,68.15,0,0,1-6.72,2c-.69.17-.29,1.21.4,1a67.7,67.7,0,0,0,22.74-10.24,69.36,69.36,0,0,0,5.68-4.44C442.9,306.14,442.25,305.24,441.71,305.71Z" transform="translate(-52.26 -36.92)"/><path class="cls-4" d="M454.15,255.75a48.41,48.41,0,0,1-.49,29.92,47.48,47.48,0,0,1-3.54,7.87c-.35.62.67,1.07,1,.45a49.53,49.53,0,0,0,5.9-30.06,47.54,47.54,0,0,0-1.85-8.58C455,254.67,453.94,255.07,454.15,255.75Z" transform="translate(-52.26 -36.92)"/><path class="cls-4" d="M464,270.84a57.87,57.87,0,0,1-3.49,18.41,60.12,60.12,0,0,1-9,16.4,57.25,57.25,0,0,1-7.27,7.74c-.53.47.12,1.37.66.9a59.7,59.7,0,0,0,12.11-14.83,60.76,60.76,0,0,0,6.91-18,58.73,58.73,0,0,0,1.23-10.75C465.1,270,464,270.13,464,270.84Z" transform="translate(-52.26 -36.92)"/><path class="cls-4" d="M348.52,186.37a56.89,56.89,0,0,0-5.12-4.82c-.55-.46-1.25.4-.7.86a55.35,55.35,0,0,1,14.87,19.38,56.57,56.57,0,0,1,2.51,6.52c.21.69,1.25.29,1-.39A56.33,56.33,0,0,0,348.52,186.37Z" transform="translate(-52.26 -36.92)"/><path class="cls-1" d="M392.62,181.68A143.91,143.91,0,0,0,165.08,95.9c1.1,1,2.18,2,3.26,3.08A139.5,139.5,0,0,1,387.51,179C389.26,179.85,391,180.73,392.62,181.68Z" transform="translate(-52.26 -36.92)"/><path class="cls-1" d="M379.64,175.77a133.41,133.41,0,0,0-43.88-67.56,132.63,132.63,0,0,0-162.45-4.4l1.29,1.31a130.81,130.81,0,0,1,160,4.5A131.69,131.69,0,0,1,377.53,175Z" transform="translate(-52.26 -36.92)"/><path class="cls-1" d="M342.52,316.61a138.92,138.92,0,0,1-92.82,33.64c-76.89-1.1-138.55-64.55-137.46-141.44a140,140,0,0,1,7.52-43.18c-1.27-.84-2.55-1.64-3.84-2.43a144.64,144.64,0,0,0-8.1,45.55c-1.13,79.33,62.49,144.78,141.82,145.92a143.34,143.34,0,0,0,96.1-35Q344.06,318.21,342.52,316.61Z" transform="translate(-52.26 -36.92)"/><path class="cls-1" d="M337.19,309.78a130.32,130.32,0,0,1-87.37,31.82c-72.12-1-129.95-60.55-128.92-132.67a129.58,129.58,0,0,1,6.3-38.39l-1.58-1a132,132,0,0,0-6.55,39.39C118,282,176.67,342.37,249.8,343.42a132.12,132.12,0,0,0,88.39-32.1C337.85,310.81,337.51,310.3,337.19,309.78Z" transform="translate(-52.26 -36.92)"/><text class="cls-5" transform="translate(91.55 383.62)"><tspan class="cls-6">V</tspan><tspan class="cls-7" x="24.4" y="0">A</tspan><tspan x="50.64" y="0">CCI</tspan><tspan class="cls-8" x="113.76" y="0">N</tspan><tspan class="cls-9" x="141.56" y="0">A</tspan><tspan x="165.9" y="0">TE</tspan></text><text class="cls-10" transform="translate(152.95 349.5)">TIME  <tspan class="cls-11" x="54.47" y="0"> </tspan><tspan class="cls-12" x="59.52" y="0">T</tspan><tspan class="cls-13" x="73.71" y="0">O</tspan></text><text class="cls-14" transform="translate(143.07 406.38)">S<tspan class="cls-15" x="9.27" y="0">  T</tspan><tspan x="18.4" y="0">OP C</tspan><tspan class="cls-16" x="51.66" y="0">O</tspan><tspan x="61.72" y="0">VID-19</tspan></text><path class="cls-1" d="M243.86,46a1.13,1.13,0,0,0-.21-.35,1.32,1.32,0,0,0-1.49-.32,1.72,1.72,0,0,0-.6.37,1.34,1.34,0,0,0-.23.25.9.9,0,0,0-.17.53l-2.17.16-.31,0a5.76,5.76,0,0,0-.74-1.81l1.17-1,.71-.59a1.64,1.64,0,0,0,.54.28,1.09,1.09,0,0,0,.69-.06,1.18,1.18,0,0,0,.19-.11,2,2,0,0,0,.55-.37,1.12,1.12,0,0,0,.35-.73,1.27,1.27,0,0,0-.57-1.13,1.15,1.15,0,0,0-.33-.21,1.35,1.35,0,0,0-1.48.4,1.86,1.86,0,0,0-.36.61,1.78,1.78,0,0,0-.09.33.83.83,0,0,0,.1.54L237.55,44l-.17.1a6.08,6.08,0,0,0-1.55-1.26c.18-.45.37-.9.56-1.35.12-.28.23-.57.35-.85a1.78,1.78,0,0,0,.61,0,1.17,1.17,0,0,0,.59-.38.81.81,0,0,0,.12-.18,2.16,2.16,0,0,0,.31-.58,1.13,1.13,0,0,0,0-.81,1.29,1.29,0,0,0-1-.74,1.26,1.26,0,0,0-.39,0,1.33,1.33,0,0,0-1.13,1,1.87,1.87,0,0,0,0,.71,1.76,1.76,0,0,0,.07.33.85.85,0,0,0,.34.44c-.37.62-.74,1.25-1.12,1.87l-.08.14a5.93,5.93,0,0,0-2-.35c0-.49-.09-1-.13-1.48,0-.3-.05-.61-.07-.92a1.64,1.64,0,0,0,.54-.28,1.08,1.08,0,0,0,.35-.6,1.5,1.5,0,0,0,0-.22,2,2,0,0,0,0-.65,1.16,1.16,0,0,0-.4-.71,1.27,1.27,0,0,0-1.24-.19,1.2,1.2,0,0,0-.37.15,1.34,1.34,0,0,0-.53,1.44,1.63,1.63,0,0,0,.3.64,1.39,1.39,0,0,0,.21.27.85.85,0,0,0,.5.23l-.13,2.18v.21a5.87,5.87,0,0,0-2.18.82l-.93-1.3-.54-.75a1.41,1.41,0,0,0,.32-.52,1.05,1.05,0,0,0,0-.7.82.82,0,0,0-.09-.19,2.3,2.3,0,0,0-.33-.57,1.1,1.1,0,0,0-.7-.41,1.3,1.3,0,0,0-1.17.48,1.12,1.12,0,0,0-.23.32,1.31,1.31,0,0,0,.28,1.5,1.7,1.7,0,0,0,.58.41,1.28,1.28,0,0,0,.33.11.82.82,0,0,0,.54,0l1,1.93.16.32A6.1,6.1,0,0,0,227.9,45l-1.57-.79-.82-.42a1.58,1.58,0,0,0,0-.61,1.05,1.05,0,0,0-.33-.61l-.16-.14a2.75,2.75,0,0,0-.56-.35,1.08,1.08,0,0,0-.81,0,1.25,1.25,0,0,0-.82,1,1.25,1.25,0,0,0,.88,1.59,1.7,1.7,0,0,0,.71.09,1.32,1.32,0,0,0,.34,0,.87.87,0,0,0,.46-.3L227,45.57l.43.3a5.92,5.92,0,0,0-.35,1.74l-1.92,0h-.93a1.47,1.47,0,0,0-.24-.56,1.13,1.13,0,0,0-.57-.39l-.22,0a2,2,0,0,0-.65,0,1.15,1.15,0,0,0-.74.33,1.31,1.31,0,0,0-.28,1.24,1.16,1.16,0,0,0,.13.37,1.33,1.33,0,0,0,1.39.63,1.6,1.6,0,0,0,.66-.24,1.15,1.15,0,0,0,.29-.2.86.86,0,0,0,.27-.48l2.16.29.69.1a5.81,5.81,0,0,0,.44,1.61l-.07,0-1.76.93-.81.43a1.57,1.57,0,0,0-.47-.38,1.09,1.09,0,0,0-.69-.09l-.21.06a2.39,2.39,0,0,0-.61.26,1.08,1.08,0,0,0-.49.64,1.27,1.27,0,0,0,.31,1.22,1.06,1.06,0,0,0,.29.27,1.31,1.31,0,0,0,1.52-.07,1.74,1.74,0,0,0,.48-.53,1.24,1.24,0,0,0,.16-.3.87.87,0,0,0,0-.55l2-.74.78-.28a6.08,6.08,0,0,0,1.06,1.2l-.09.14-1.13,1.63c-.17.26-.35.51-.52.76a1.83,1.83,0,0,0-.6-.12,1.08,1.08,0,0,0-.65.24l-.16.15a2,2,0,0,0-.42.51,1.1,1.1,0,0,0-.15.79,1.25,1.25,0,0,0,.85.94,1,1,0,0,0,.38.11,1.3,1.3,0,0,0,1.31-.77,1.57,1.57,0,0,0,.19-.68,2,2,0,0,0,0-.35.79.79,0,0,0-.24-.49l1.48-1.6c.2-.22.4-.44.61-.65a5.68,5.68,0,0,0,1.46.6l0,.18c-.08.66-.16,1.32-.25,2l-.11.92a1.67,1.67,0,0,0-.59.16,1.1,1.1,0,0,0-.46.52c0,.07-.06.14-.08.2a2.44,2.44,0,0,0-.14.65,1.13,1.13,0,0,0,.24.77,1.25,1.25,0,0,0,1.18.44,1,1,0,0,0,.39-.07,1.31,1.31,0,0,0,.81-1.29,1.65,1.65,0,0,0-.15-.69,1.48,1.48,0,0,0-.15-.31.88.88,0,0,0-.44-.33l.57-2.1.24-.84H233a5.31,5.31,0,0,0,1.14-.11l.05.12c.23.62.46,1.24.68,1.86.11.29.22.58.32.87a1.57,1.57,0,0,0-.44.41,1.09,1.09,0,0,0-.18.68l0,.21a2.74,2.74,0,0,0,.17.64,1.13,1.13,0,0,0,.57.57,1.25,1.25,0,0,0,1.25-.15,1.08,1.08,0,0,0,.32-.24,1.33,1.33,0,0,0,.12-1.52,1.7,1.7,0,0,0-.45-.55,1.79,1.79,0,0,0-.28-.2.88.88,0,0,0-.55-.09l-.45-2.13-.16-.77a5.77,5.77,0,0,0,1.45-.82L238,53.87l.69.62a1.52,1.52,0,0,0-.21.57,1,1,0,0,0,.16.68.94.94,0,0,0,.12.18,2.06,2.06,0,0,0,.45.48,1.07,1.07,0,0,0,.77.25,1.25,1.25,0,0,0,1-.71,1.17,1.17,0,0,0,.16-.36,1.33,1.33,0,0,0-.59-1.41,1.7,1.7,0,0,0-.65-.27,1.33,1.33,0,0,0-.34,0,.88.88,0,0,0-.53.17l-1.38-1.68-.41-.5a5.58,5.58,0,0,0,1-1.46l1.76.47.89.23a1.56,1.56,0,0,0,.08.61,1.06,1.06,0,0,0,.45.53l.19.1a2.42,2.42,0,0,0,.62.22,1.06,1.06,0,0,0,.8-.13,1.27,1.27,0,0,0,.6-1.11,1.35,1.35,0,0,0,0-.4,1.33,1.33,0,0,0-1.17-1,1.71,1.71,0,0,0-.71,0,2.19,2.19,0,0,0-.33.12.8.8,0,0,0-.38.39l-2-.86-.43-.18a6,6,0,0,0,.21-1.55c0-.1,0-.2,0-.31l1.61-.35.9-.2a1.6,1.6,0,0,0,.36.49,1.08,1.08,0,0,0,.64.27h.22a2.37,2.37,0,0,0,.65-.09,1.13,1.13,0,0,0,.65-.48A1.29,1.29,0,0,0,243.86,46Z" transform="translate(-52.26 -36.92)"/><path class="cls-3" d="M434.9,352.1a1.2,1.2,0,0,0-.21-.34,1.33,1.33,0,0,0-1.49-.33,1.74,1.74,0,0,0-.6.38,1.84,1.84,0,0,0-.23.25.88.88,0,0,0-.17.53l-2.17.16-.31,0A5.59,5.59,0,0,0,429,351l1.16-1,.71-.59a1.85,1.85,0,0,0,.54.28,1.06,1.06,0,0,0,.7-.07l.19-.1a2.46,2.46,0,0,0,.54-.37,1.15,1.15,0,0,0,.35-.73,1.27,1.27,0,0,0-.57-1.13,1.15,1.15,0,0,0-.33-.21,1.33,1.33,0,0,0-1.48.39,2,2,0,0,0-.36.61,1.89,1.89,0,0,0-.09.34.83.83,0,0,0,.1.54l-1.86,1.14-.17.11a5.76,5.76,0,0,0-1.55-1.27c.18-.45.37-.89.56-1.34.12-.29.24-.57.35-.85a1.56,1.56,0,0,0,.61,0,1.09,1.09,0,0,0,.59-.37.94.94,0,0,0,.12-.18,2.32,2.32,0,0,0,.31-.58,1.13,1.13,0,0,0,0-.81,1.27,1.27,0,0,0-1-.74,1.35,1.35,0,0,0-.4,0,1.33,1.33,0,0,0-1.13,1,1.65,1.65,0,0,0,0,.7,1.28,1.28,0,0,0,.07.34.82.82,0,0,0,.33.44l-1.11,1.87-.09.14a5.69,5.69,0,0,0-2-.35l-.13-1.48-.07-.92a1.55,1.55,0,0,0,.54-.28,1.08,1.08,0,0,0,.35-.6,1.64,1.64,0,0,0,0-.22,2.09,2.09,0,0,0,0-.66,1.12,1.12,0,0,0-.39-.7,1.24,1.24,0,0,0-1.25-.19,1.2,1.2,0,0,0-.37.15,1.32,1.32,0,0,0-.52,1.43,1.47,1.47,0,0,0,.29.65,1.13,1.13,0,0,0,.22.27.8.8,0,0,0,.49.23l-.12,2.18,0,.21a5.7,5.7,0,0,0-2.18.82l-.93-1.3-.54-.75a1.5,1.5,0,0,0,.32-.52,1.05,1.05,0,0,0,0-.7.88.88,0,0,0-.09-.2,2,2,0,0,0-.33-.56,1.1,1.1,0,0,0-.7-.41,1.27,1.27,0,0,0-1.17.48,1.24,1.24,0,0,0-.23.32,1.32,1.32,0,0,0,.28,1.5,1.67,1.67,0,0,0,.58.4,1.1,1.1,0,0,0,.33.12.86.86,0,0,0,.55,0l1,1.93.17.32a5.56,5.56,0,0,0-1.19,1.45l-1.57-.79-.82-.42a1.58,1.58,0,0,0,0-.61,1.05,1.05,0,0,0-.33-.61,1.07,1.07,0,0,0-.16-.14,2.75,2.75,0,0,0-.56-.35,1.13,1.13,0,0,0-.81,0,1.55,1.55,0,0,0-.88,1.36,1.32,1.32,0,0,0,.95,1.2,1.63,1.63,0,0,0,.7.09,1.33,1.33,0,0,0,.34-.05.78.78,0,0,0,.46-.3l1.78,1.26.43.3a5.85,5.85,0,0,0-.35,1.74h-2.85a1.4,1.4,0,0,0-.24-.56,1.13,1.13,0,0,0-.57-.39l-.21,0a2.14,2.14,0,0,0-.66-.06,1.16,1.16,0,0,0-.74.34,1.3,1.3,0,0,0-.28,1.23,1.25,1.25,0,0,0,1.52,1,1.69,1.69,0,0,0,.67-.24,1.79,1.79,0,0,0,.28-.2.9.9,0,0,0,.27-.48l2.16.29.69.09a5.88,5.88,0,0,0,.44,1.62l-.07,0-1.75.93-.82.43a1.47,1.47,0,0,0-.47-.39,1.16,1.16,0,0,0-.69-.08l-.21.06a2,2,0,0,0-.61.26,1,1,0,0,0-.49.63,1.29,1.29,0,0,0,.31,1.23,1.24,1.24,0,0,0,.29.27,1.33,1.33,0,0,0,1.52-.08,1.6,1.6,0,0,0,.48-.52,1.3,1.3,0,0,0,.16-.31.87.87,0,0,0,0-.55l2.05-.73.78-.28a5.82,5.82,0,0,0,1.07,1.2l-.1.14L419,360.26c-.17.26-.35.51-.52.76a1.4,1.4,0,0,0-.6-.12,1,1,0,0,0-.65.24l-.16.15a2.28,2.28,0,0,0-.42.51,1.16,1.16,0,0,0-.15.79,1.3,1.3,0,0,0,.85.94,1,1,0,0,0,.38.11,1.34,1.34,0,0,0,1.32-.77,1.81,1.81,0,0,0,.18-.68,1.37,1.37,0,0,0,0-.35.84.84,0,0,0-.24-.5l1.48-1.59.61-.65a6.06,6.06,0,0,0,1.46.6l0,.18-.24,2-.12.92a1.67,1.67,0,0,0-.59.16,1,1,0,0,0-.46.52.68.68,0,0,0-.07.2,2.1,2.1,0,0,0-.14.65,1.07,1.07,0,0,0,.23.77,1.25,1.25,0,0,0,1.18.44,1.23,1.23,0,0,0,.39-.07,1.33,1.33,0,0,0,.82-1.29,1.88,1.88,0,0,0-.16-.7,1.68,1.68,0,0,0-.15-.3.82.82,0,0,0-.44-.33c.19-.7.38-1.41.58-2.11.07-.28.15-.56.23-.84a3.39,3.39,0,0,0,.45,0,6.15,6.15,0,0,0,1.15-.11l0,.11.69,1.87.31.87a1.57,1.57,0,0,0-.44.41,1.09,1.09,0,0,0-.18.68l0,.21a2.18,2.18,0,0,0,.18.63,1.06,1.06,0,0,0,.56.58,1.27,1.27,0,0,0,1.26-.15,1.22,1.22,0,0,0,.31-.25,1.32,1.32,0,0,0,.12-1.52,1.78,1.78,0,0,0-.45-.54,1.31,1.31,0,0,0-.28-.2.82.82,0,0,0-.55-.09l-.45-2.13c-.05-.26-.11-.51-.16-.77a5.77,5.77,0,0,0,1.45-.82l1.46,1.33.69.63a1.52,1.52,0,0,0-.21.57,1.08,1.08,0,0,0,.16.68,1.88,1.88,0,0,0,.12.18,2.29,2.29,0,0,0,.45.48,1.09,1.09,0,0,0,.77.25,1.25,1.25,0,0,0,1-.71,1.17,1.17,0,0,0,.16-.36,1.32,1.32,0,0,0-.59-1.41A1.63,1.63,0,0,0,431,360a1.33,1.33,0,0,0-.34-.05.88.88,0,0,0-.53.17l-1.38-1.68-.41-.5a5.63,5.63,0,0,0,1-1.47l1.76.47.89.24a1.56,1.56,0,0,0,.08.61,1.16,1.16,0,0,0,.45.53,1.21,1.21,0,0,0,.2.09,2,2,0,0,0,.61.23,1.11,1.11,0,0,0,.8-.13,1.25,1.25,0,0,0,.6-1.11,1.07,1.07,0,0,0,0-.4,1.32,1.32,0,0,0-1.17-1,1.72,1.72,0,0,0-.71.06,1.24,1.24,0,0,0-.32.12.82.82,0,0,0-.39.39l-2-.86-.43-.18a5.74,5.74,0,0,0,.21-1.55c0-.1,0-.21,0-.31l1.61-.36.9-.2a1.53,1.53,0,0,0,.36.5,1.08,1.08,0,0,0,.64.27h.22a2,2,0,0,0,.65-.08,1.13,1.13,0,0,0,.65-.48A1.28,1.28,0,0,0,434.9,352.1Z" transform="translate(-52.26 -36.92)"/><path class="cls-3" d="M146.18,57.86a2,2,0,0,0-.38-.64,2.49,2.49,0,0,0-2.8-.62,3.25,3.25,0,0,0-1.13.7,2.88,2.88,0,0,0-.44.48,1.58,1.58,0,0,0-.31,1l-4.08.31-.58,0a10.91,10.91,0,0,0-1.38-3.4l2.19-1.83,1.33-1.12a2.88,2.88,0,0,0,1,.53,2,2,0,0,0,1.31-.12,2.37,2.37,0,0,0,.35-.19,3.88,3.88,0,0,0,1-.71,2,2,0,0,0,.66-1.36,2.36,2.36,0,0,0-1.06-2.12,2.32,2.32,0,0,0-.63-.4,2.51,2.51,0,0,0-2.77.74,3.41,3.41,0,0,0-.67,1.15,2.28,2.28,0,0,0-.18.63,1.58,1.58,0,0,0,.18,1l-3.48,2.16-.32.19a11,11,0,0,0-2.92-2.37l1.05-2.53.67-1.6a3,3,0,0,0,1.15,0,2.07,2.07,0,0,0,1.1-.71,2.75,2.75,0,0,0,.23-.33,4,4,0,0,0,.57-1.1,2,2,0,0,0,0-1.51,2.38,2.38,0,0,0-1.92-1.4,2,2,0,0,0-.74,0,2.46,2.46,0,0,0-2.11,1.93,3.13,3.13,0,0,0-.08,1.33,2.73,2.73,0,0,0,.14.63,1.54,1.54,0,0,0,.63.82l-2.1,3.51-.16.27a10.91,10.91,0,0,0-3.72-.67c-.08-.92-.15-1.84-.23-2.77L125.4,46a2.94,2.94,0,0,0,1-.52,2,2,0,0,0,.65-1.14,2.57,2.57,0,0,0,.06-.4,4.29,4.29,0,0,0,0-1.24,2.06,2.06,0,0,0-.73-1.32A2.39,2.39,0,0,0,124,41a2.33,2.33,0,0,0-1.67,3,3.13,3.13,0,0,0,.55,1.22,2.43,2.43,0,0,0,.41.5,1.51,1.51,0,0,0,.93.43L124,50.24l0,.4a11,11,0,0,0-4.1,1.53l-1.75-2.43-1-1.41a2.85,2.85,0,0,0,.6-1,2,2,0,0,0,0-1.31,3,3,0,0,0-.16-.37,3.91,3.91,0,0,0-.63-1.06,2,2,0,0,0-1.31-.76,2.36,2.36,0,0,0-2.19.9,2,2,0,0,0-.45.6,2.49,2.49,0,0,0,.54,2.81,3.11,3.11,0,0,0,1.09.76,2.23,2.23,0,0,0,.61.22,1.57,1.57,0,0,0,1-.1c.63,1.21,1.26,2.42,1.88,3.63l.31.59A11.3,11.3,0,0,0,116.21,56l-2.93-1.49-1.55-.78a2.81,2.81,0,0,0,.08-1.15,2,2,0,0,0-.62-1.15,1.89,1.89,0,0,0-.31-.25,4.12,4.12,0,0,0-1-.66,2.1,2.1,0,0,0-1.52-.07,2.39,2.39,0,0,0-1.53,1.81,2.08,2.08,0,0,0-.11.74,2.49,2.49,0,0,0,1.77,2.25,3.25,3.25,0,0,0,1.32.17,2.35,2.35,0,0,0,.64-.09,1.52,1.52,0,0,0,.86-.56l3.35,2.35.81.57a11,11,0,0,0-.67,3.26l-3.61,0-1.73,0a2.91,2.91,0,0,0-.45-1.05,2,2,0,0,0-1.08-.74,2.83,2.83,0,0,0-.4-.08,3.94,3.94,0,0,0-1.23-.1,2.06,2.06,0,0,0-1.38.64,2.37,2.37,0,0,0-.53,2.31,2.08,2.08,0,0,0,.24.7,2.48,2.48,0,0,0,2.61,1.19,3.21,3.21,0,0,0,1.25-.46A2.4,2.4,0,0,0,109,63a1.54,1.54,0,0,0,.5-.9l4.06.55,1.29.17a11.39,11.39,0,0,0,.83,3l-.12.06-3.3,1.75-1.53.82a2.83,2.83,0,0,0-.89-.73,2.07,2.07,0,0,0-1.3-.16l-.38.11a3.75,3.75,0,0,0-1.14.49,2.1,2.1,0,0,0-.94,1.19,2.42,2.42,0,0,0,.6,2.3,2.22,2.22,0,0,0,.54.52,2.5,2.5,0,0,0,2.86-.15,3.51,3.51,0,0,0,.9-1,3.19,3.19,0,0,0,.3-.58,1.59,1.59,0,0,0,0-1l3.85-1.38,1.46-.53a11.33,11.33,0,0,0,2,2.26l-.17.26-2.12,3.06-1,1.43a2.91,2.91,0,0,0-1.12-.23,2,2,0,0,0-1.22.46,1.93,1.93,0,0,0-.3.27,4.44,4.44,0,0,0-.79,1,2.09,2.09,0,0,0-.27,1.5,2.37,2.37,0,0,0,1.58,1.76,2.29,2.29,0,0,0,.72.21,2.48,2.48,0,0,0,2.47-1.45,3.35,3.35,0,0,0,.35-1.28,3.53,3.53,0,0,0,0-.65,1.63,1.63,0,0,0-.45-.94l2.78-3c.38-.4.76-.81,1.13-1.22a10.93,10.93,0,0,0,2.75,1.14l0,.34c-.15,1.23-.31,2.47-.47,3.7l-.21,1.72a2.83,2.83,0,0,0-1.11.31,2,2,0,0,0-.87,1,2.43,2.43,0,0,0-.13.38,4.32,4.32,0,0,0-.27,1.21,2.06,2.06,0,0,0,.45,1.45,2.36,2.36,0,0,0,2.22.83,2,2,0,0,0,.73-.14,2.48,2.48,0,0,0,1.52-2.42,3.07,3.07,0,0,0-.28-1.3,2.89,2.89,0,0,0-.3-.58,1.56,1.56,0,0,0-.82-.62l1.08-4c.15-.52.29-1,.44-1.58a8.12,8.12,0,0,0,.86,0,10.79,10.79,0,0,0,2.14-.21l.08.21,1.29,3.5.6,1.63a2.86,2.86,0,0,0-.84.78,2.11,2.11,0,0,0-.33,1.27,2.76,2.76,0,0,0,.06.4,4,4,0,0,0,.32,1.19,2.15,2.15,0,0,0,1.07,1.09,2.39,2.39,0,0,0,2.35-.29,2.18,2.18,0,0,0,.58-.46,2.47,2.47,0,0,0,.24-2.85,3.24,3.24,0,0,0-.85-1,2.8,2.8,0,0,0-.53-.37,1.54,1.54,0,0,0-1-.17c-.28-1.34-.57-2.67-.85-4l-.31-1.44a10.9,10.9,0,0,0,2.72-1.55l2.76,2.51,1.28,1.17a2.79,2.79,0,0,0-.38,1.08,2,2,0,0,0,.29,1.27,1.94,1.94,0,0,0,.23.33,3.84,3.84,0,0,0,.84.91,2,2,0,0,0,1.44.47,2.37,2.37,0,0,0,2-1.33,2.17,2.17,0,0,0,.3-.68,2.47,2.47,0,0,0-1.1-2.64,3.2,3.2,0,0,0-1.23-.52,2.74,2.74,0,0,0-.64-.09,1.58,1.58,0,0,0-1,.32l-2.6-3.16-.77-.93a11.4,11.4,0,0,0,1.84-2.75L139,67l1.67.44a3.09,3.09,0,0,0,.16,1.14,2.05,2.05,0,0,0,.84,1,3,3,0,0,0,.36.18,4.21,4.21,0,0,0,1.17.42,2.08,2.08,0,0,0,1.5-.24,2.39,2.39,0,0,0,1.12-2.09,2.29,2.29,0,0,0,0-.74,2.49,2.49,0,0,0-2.2-1.84,3.17,3.17,0,0,0-1.33.11,3.14,3.14,0,0,0-.61.21,1.63,1.63,0,0,0-.73.74l-3.76-1.61-.81-.35a11,11,0,0,0,.38-2.9c0-.19,0-.38,0-.58l3-.67,1.69-.37a3,3,0,0,0,.66.93,2,2,0,0,0,1.21.5,1.88,1.88,0,0,0,.41,0,3.65,3.65,0,0,0,1.23-.16,2,2,0,0,0,1.21-.9A2.39,2.39,0,0,0,146.18,57.86Z" transform="translate(-52.26 -36.92)"/><path class="cls-3" d="M446.22,94.39a3.37,3.37,0,0,0-.62-1,4,4,0,0,0-4.52-1,5.13,5.13,0,0,0-1.82,1.14,4.7,4.7,0,0,0-.72.76,2.52,2.52,0,0,0-.49,1.6l-6.6.5-.94.07a17.77,17.77,0,0,0-2.23-5.49l3.54-3,2.14-1.8a4.56,4.56,0,0,0,1.65.85,3.26,3.26,0,0,0,2.11-.19,3.86,3.86,0,0,0,.57-.3,6.87,6.87,0,0,0,1.65-1.15,3.37,3.37,0,0,0,1.07-2.2,3.86,3.86,0,0,0-1.72-3.43,3.51,3.51,0,0,0-1-.64,4,4,0,0,0-4.48,1.2,5.3,5.3,0,0,0-1.09,1.85,4.61,4.61,0,0,0-.28,1,2.56,2.56,0,0,0,.29,1.65l-5.62,3.48-.52.32a18,18,0,0,0-4.73-3.85l1.71-4.09,1.08-2.58a4.61,4.61,0,0,0,1.85,0A3.29,3.29,0,0,0,428.26,77a4,4,0,0,0,.37-.54,6.67,6.67,0,0,0,.93-1.77,3.37,3.37,0,0,0-.06-2.46,3.87,3.87,0,0,0-3.11-2.25,3.47,3.47,0,0,0-1.2-.09A4,4,0,0,0,421.77,73a5.18,5.18,0,0,0-.11,2.15,4.4,4.4,0,0,0,.21,1,2.55,2.55,0,0,0,1,1.33l-3.39,5.68-.25.43a17.69,17.69,0,0,0-6-1.08c-.13-1.49-.25-3-.38-4.48-.07-.93-.15-1.86-.23-2.79a4.45,4.45,0,0,0,1.64-.86,3.28,3.28,0,0,0,1.06-1.83,4.66,4.66,0,0,0,.08-.64,6.46,6.46,0,0,0,0-2,3.31,3.31,0,0,0-1.19-2.14,3.83,3.83,0,0,0-3.79-.57,3.51,3.51,0,0,0-1.11.47,4,4,0,0,0-1.6,4.34,5.36,5.36,0,0,0,.89,2,4.39,4.39,0,0,0,.66.82,2.57,2.57,0,0,0,1.52.7l-.39,6.6c0,.22,0,.44,0,.65a17.66,17.66,0,0,0-6.62,2.48c-.94-1.31-1.89-2.62-2.83-3.94L399.28,79a4.72,4.72,0,0,0,1-1.58,3.25,3.25,0,0,0,0-2.11,3.2,3.2,0,0,0-.26-.6,6.49,6.49,0,0,0-1-1.73,3.4,3.4,0,0,0-2.13-1.23,3.84,3.84,0,0,0-3.54,1.46,3.37,3.37,0,0,0-.71,1,4,4,0,0,0,.85,4.55A5.37,5.37,0,0,0,395.18,80a4,4,0,0,0,1,.35,2.47,2.47,0,0,0,1.66-.17c1,2,2,3.92,3.05,5.87l.5,1a17.84,17.84,0,0,0-3.6,4.41L393,89l-2.5-1.26a4.85,4.85,0,0,0,.13-1.85,3.22,3.22,0,0,0-1-1.86,4,4,0,0,0-.51-.41,6.56,6.56,0,0,0-1.69-1.06A3.38,3.38,0,0,0,385,82.4a3.83,3.83,0,0,0-2.47,2.93,3.71,3.71,0,0,0-.19,1.19,4,4,0,0,0,2.86,3.64,5.31,5.31,0,0,0,2.14.28,4.41,4.41,0,0,0,1-.14,2.55,2.55,0,0,0,1.4-.92l5.41,3.8,1.31.92a17.77,17.77,0,0,0-1.07,5.28l-5.84.05-2.81,0a4.62,4.62,0,0,0-.73-1.7,3.3,3.3,0,0,0-1.74-1.19,3.63,3.63,0,0,0-.64-.13,6.47,6.47,0,0,0-2-.16,3.36,3.36,0,0,0-2.23,1,3.86,3.86,0,0,0-.85,3.74,3.5,3.5,0,0,0,.39,1.14,4,4,0,0,0,4.21,1.92,5.14,5.14,0,0,0,2-.74,4.72,4.72,0,0,0,.86-.6,2.51,2.51,0,0,0,.82-1.46l6.55.88,2.1.29a17.67,17.67,0,0,0,1.34,4.91l-.21.11-5.32,2.82-2.48,1.32a4.88,4.88,0,0,0-1.43-1.18,3.3,3.3,0,0,0-2.1-.25,3.26,3.26,0,0,0-.63.18,6.54,6.54,0,0,0-1.84.78,3.33,3.33,0,0,0-1.51,1.94,3.84,3.84,0,0,0,1,3.7,3.43,3.43,0,0,0,.86.84,4,4,0,0,0,4.63-.24,5.14,5.14,0,0,0,1.45-1.59,4.14,4.14,0,0,0,.49-.93,2.59,2.59,0,0,0,.05-1.67L396,111l2.35-.85a17.89,17.89,0,0,0,3.24,3.65l-.28.42q-1.72,2.47-3.43,5l-1.59,2.3a5,5,0,0,0-1.81-.38,3.26,3.26,0,0,0-2,.75,3.37,3.37,0,0,0-.48.45,6.9,6.9,0,0,0-1.28,1.53,3.37,3.37,0,0,0-.44,2.42,3.84,3.84,0,0,0,2.56,2.84,3.46,3.46,0,0,0,1.16.35,4,4,0,0,0,4-2.35,5.07,5.07,0,0,0,.56-2.07,4.1,4.1,0,0,0,0-1,2.6,2.6,0,0,0-.73-1.51l4.5-4.85,1.83-2a17.61,17.61,0,0,0,4.43,1.83l-.07.55-.75,6c-.12.93-.24,1.86-.35,2.78a4.73,4.73,0,0,0-1.79.5,3.31,3.31,0,0,0-1.41,1.57,4.57,4.57,0,0,0-.22.62,6.61,6.61,0,0,0-.42,2,3.37,3.37,0,0,0,.72,2.35,3.85,3.85,0,0,0,3.58,1.35,3.7,3.7,0,0,0,1.19-.23,4,4,0,0,0,2.46-3.92,5.09,5.09,0,0,0-.46-2.1,4.17,4.17,0,0,0-.48-.94,2.51,2.51,0,0,0-1.33-1c.58-2.13,1.17-4.25,1.75-6.38l.71-2.55c.46,0,.92,0,1.39,0a17.21,17.21,0,0,0,3.46-.34l.13.35c.7,1.89,1.39,3.78,2.09,5.66l1,2.63a4.79,4.79,0,0,0-1.35,1.26,3.25,3.25,0,0,0-.53,2,3.63,3.63,0,0,0,.09.65,6.73,6.73,0,0,0,.52,1.93,3.38,3.38,0,0,0,1.72,1.75,3.86,3.86,0,0,0,3.81-.46,3.57,3.57,0,0,0,.94-.75,4,4,0,0,0,.38-4.61,5.19,5.19,0,0,0-1.37-1.66,4.28,4.28,0,0,0-.86-.6,2.52,2.52,0,0,0-1.64-.28l-1.38-6.47-.5-2.32a18,18,0,0,0,4.4-2.5l4.45,4.06,2.08,1.88a4.54,4.54,0,0,0-.62,1.75,3.25,3.25,0,0,0,.47,2.06,3.94,3.94,0,0,0,.38.53,6.32,6.32,0,0,0,1.35,1.47,3.31,3.31,0,0,0,2.33.77,3.86,3.86,0,0,0,3.17-2.16,3.74,3.74,0,0,0,.49-1.1,4,4,0,0,0-1.78-4.27,5.34,5.34,0,0,0-2-.84,4.07,4.07,0,0,0-1-.14,2.56,2.56,0,0,0-1.59.51l-4.2-5.1-1.24-1.51a17.92,17.92,0,0,0,3-4.45l5.34,1.43,2.7.72a4.7,4.7,0,0,0,.26,1.83,3.3,3.3,0,0,0,1.36,1.61,3.64,3.64,0,0,0,.59.3,6.43,6.43,0,0,0,1.88.68,3.36,3.36,0,0,0,2.42-.39,3.84,3.84,0,0,0,1.81-3.38,3.46,3.46,0,0,0-.06-1.2,4,4,0,0,0-3.56-3,5.19,5.19,0,0,0-2.14.17,4.85,4.85,0,0,0-1,.35,2.61,2.61,0,0,0-1.18,1.19l-6.08-2.59-1.32-.57a17.7,17.7,0,0,0,.63-4.69c0-.31,0-.62,0-.93l4.9-1.09,2.73-.61a4.7,4.7,0,0,0,1.07,1.51,3.33,3.33,0,0,0,2,.81,4.7,4.7,0,0,0,.65,0,6.64,6.64,0,0,0,2-.26,3.29,3.29,0,0,0,2-1.47A3.85,3.85,0,0,0,446.22,94.39Z" transform="translate(-52.26 -36.92)"/><path class="cls-3" d="M133.44,324.3a3.51,3.51,0,0,0-.61-1,4,4,0,0,0-4.53-1,5.13,5.13,0,0,0-1.82,1.14,4.24,4.24,0,0,0-.71.76,2.59,2.59,0,0,0-.5,1.6l-6.6.5-.94.07a17.67,17.67,0,0,0-2.23-5.49l3.54-3,2.15-1.8a4.59,4.59,0,0,0,1.64.85,3.33,3.33,0,0,0,2.11-.19,3.86,3.86,0,0,0,.57-.3,6.68,6.68,0,0,0,1.65-1.15,3.37,3.37,0,0,0,1.07-2.21,3.85,3.85,0,0,0-1.72-3.42,3.51,3.51,0,0,0-1-.64,4,4,0,0,0-4.47,1.2,5.17,5.17,0,0,0-1.1,1.85,4.46,4.46,0,0,0-.28,1,2.6,2.6,0,0,0,.29,1.64l-5.62,3.48-.52.33a17.88,17.88,0,0,0-4.72-3.85c.56-1.36,1.13-2.72,1.7-4.09l1.08-2.58a4.61,4.61,0,0,0,1.85,0,3.25,3.25,0,0,0,1.78-1.14,3.34,3.34,0,0,0,.37-.53,6.67,6.67,0,0,0,.93-1.77,3.37,3.37,0,0,0-.06-2.46,3.87,3.87,0,0,0-3.1-2.25,3.54,3.54,0,0,0-1.21-.09,4,4,0,0,0-3.41,3.12,5,5,0,0,0-.12,2.15,4.4,4.4,0,0,0,.21,1,2.59,2.59,0,0,0,1,1.33l-3.39,5.68-.25.42a17.93,17.93,0,0,0-6-1.07c-.12-1.49-.25-3-.38-4.48-.07-.93-.15-1.86-.23-2.79a4.6,4.6,0,0,0,1.64-.86,3.28,3.28,0,0,0,1.06-1.83,4.62,4.62,0,0,0,.08-.65,6.39,6.39,0,0,0,0-2,3.31,3.31,0,0,0-1.19-2.14,3.83,3.83,0,0,0-3.79-.57,3.51,3.51,0,0,0-1.11.47A4,4,0,0,0,95,301.9a5.18,5.18,0,0,0,.88,2,4.39,4.39,0,0,0,.66.82,2.57,2.57,0,0,0,1.52.7l-.39,6.6,0,.65A17.66,17.66,0,0,0,91,315.11c-.94-1.31-1.89-2.62-2.83-3.94L86.5,308.9a4.82,4.82,0,0,0,1-1.58,3.34,3.34,0,0,0,0-2.12,3.47,3.47,0,0,0-.27-.59,6.49,6.49,0,0,0-1-1.73A3.4,3.4,0,0,0,84,301.65a3.84,3.84,0,0,0-3.54,1.46,3.37,3.37,0,0,0-.71,1,4,4,0,0,0,.86,4.55,5.22,5.22,0,0,0,1.76,1.23,4.49,4.49,0,0,0,1,.35,2.53,2.53,0,0,0,1.66-.17l3,5.87.5,1a18,18,0,0,0-3.6,4.4l-4.75-2.41-2.5-1.26a4.66,4.66,0,0,0,.13-1.85,3.22,3.22,0,0,0-1-1.86,4,4,0,0,0-.51-.41,6.39,6.39,0,0,0-1.69-1.06,3.38,3.38,0,0,0-2.46-.12,3.83,3.83,0,0,0-2.47,2.93,3.71,3.71,0,0,0-.19,1.19,4.06,4.06,0,0,0,2.86,3.64,5.34,5.34,0,0,0,2.14.28,4.57,4.57,0,0,0,1-.14,2.56,2.56,0,0,0,1.39-.92l5.41,3.8,1.31.92a17.77,17.77,0,0,0-1.07,5.28l-5.84,0-2.8,0a4.64,4.64,0,0,0-.74-1.7,3.2,3.2,0,0,0-1.74-1.19,3.67,3.67,0,0,0-.64-.14,6.78,6.78,0,0,0-2-.15,3.36,3.36,0,0,0-2.23,1A3.86,3.86,0,0,0,65.8,331a3.5,3.5,0,0,0,.39,1.14A4,4,0,0,0,70.4,334a5.14,5.14,0,0,0,2-.74,4.72,4.72,0,0,0,.86-.6,2.51,2.51,0,0,0,.82-1.46l6.55.88,2.1.29a17.51,17.51,0,0,0,1.34,4.9l-.2.11-5.33,2.83-2.48,1.31a4.87,4.87,0,0,0-1.43-1.17,3.3,3.3,0,0,0-2.1-.25,3.73,3.73,0,0,0-.63.18,6.26,6.26,0,0,0-1.84.78A3.34,3.34,0,0,0,68.57,343a3.86,3.86,0,0,0,1,3.71,3.47,3.47,0,0,0,.87.84,4,4,0,0,0,4.62-.24,5.14,5.14,0,0,0,1.45-1.59,4.14,4.14,0,0,0,.49-.93,2.53,2.53,0,0,0,0-1.67l6.23-2.23L85.6,340a17.94,17.94,0,0,0,3.25,3.65l-.29.41-3.43,5-1.59,2.3a5,5,0,0,0-1.81-.38,3.26,3.26,0,0,0-2,.75,4,4,0,0,0-.48.44A7.18,7.18,0,0,0,78,353.72a3.42,3.42,0,0,0-.44,2.42A3.84,3.84,0,0,0,80.12,359a3.57,3.57,0,0,0,1.15.35,4,4,0,0,0,4-2.35,5.07,5.07,0,0,0,.56-2.07,4.1,4.1,0,0,0,0-1.05,2.59,2.59,0,0,0-.72-1.51c1.49-1.62,3-3.23,4.49-4.85l1.83-2a17.61,17.61,0,0,0,4.43,1.83l-.06.55c-.26,2-.51,4-.76,6-.12.93-.24,1.86-.35,2.78a4.73,4.73,0,0,0-1.79.5,3.31,3.31,0,0,0-1.41,1.57,4.57,4.57,0,0,0-.22.62,6.61,6.61,0,0,0-.42,1.95,3.38,3.38,0,0,0,.72,2.35A3.83,3.83,0,0,0,95.16,365a3.43,3.43,0,0,0,1.18-.22,4,4,0,0,0,2.46-3.92,5,5,0,0,0-.46-2.11,4.1,4.1,0,0,0-.48-.93,2.51,2.51,0,0,0-1.33-1c.58-2.13,1.17-4.25,1.75-6.38.24-.85.47-1.7.71-2.55.46,0,.92.05,1.39.05a18,18,0,0,0,3.46-.34l.13.35,2.09,5.66c.32.88.64,1.75,1,2.63a4.82,4.82,0,0,0-1.36,1.26,3.38,3.38,0,0,0-.53,2.05,3.63,3.63,0,0,0,.09.65,6.74,6.74,0,0,0,.53,1.93,3.36,3.36,0,0,0,1.71,1.75,3.86,3.86,0,0,0,3.81-.46,3.42,3.42,0,0,0,.94-.75,4,4,0,0,0,.39-4.61,5.35,5.35,0,0,0-1.38-1.66,4.28,4.28,0,0,0-.86-.6,2.52,2.52,0,0,0-1.64-.28l-1.38-6.47-.5-2.32a18,18,0,0,0,4.4-2.5l4.46,4.06,2.07,1.88a4.71,4.71,0,0,0-.62,1.75,3.25,3.25,0,0,0,.47,2.06,3.94,3.94,0,0,0,.38.53,6.32,6.32,0,0,0,1.35,1.47,3.37,3.37,0,0,0,2.33.77,3.88,3.88,0,0,0,3.17-2.16,3.5,3.5,0,0,0,.49-1.1,4,4,0,0,0-1.78-4.27,5.19,5.19,0,0,0-2-.84,4.06,4.06,0,0,0-1-.14,2.57,2.57,0,0,0-1.6.51l-4.2-5.1c-.41-.51-.82-1-1.24-1.51a17.83,17.83,0,0,0,3-4.45l5.34,1.42,2.71.73a4.7,4.7,0,0,0,.25,1.83,3.27,3.27,0,0,0,1.37,1.61,3.19,3.19,0,0,0,.58.3,6.53,6.53,0,0,0,1.88.68,3.36,3.36,0,0,0,2.42-.39,3.84,3.84,0,0,0,1.81-3.38,3.46,3.46,0,0,0-.06-1.2,4,4,0,0,0-3.56-3,5.19,5.19,0,0,0-2.14.17,4.85,4.85,0,0,0-1,.35,2.54,2.54,0,0,0-1.17,1.19l-6.09-2.6-1.31-.56a18.11,18.11,0,0,0,.62-4.69c0-.32,0-.63,0-.93l4.9-1.09,2.73-.61a4.81,4.81,0,0,0,1.07,1.51,3.39,3.39,0,0,0,2,.81,4.68,4.68,0,0,0,.65,0,6.64,6.64,0,0,0,2-.26,3.37,3.37,0,0,0,2-1.47A3.85,3.85,0,0,0,133.44,324.3Z" transform="translate(-52.26 -36.92)"/><path class="cls-3" d="M78.67,252.67a1.63,1.63,0,0,0-.24-.4,1.55,1.55,0,0,0-1.75-.38,2.05,2.05,0,0,0-.71.44,1.86,1.86,0,0,0-.27.29,1,1,0,0,0-.19.62l-2.56.19-.36,0a6.82,6.82,0,0,0-.87-2.12l1.37-1.15.84-.7a1.73,1.73,0,0,0,.63.33,1.29,1.29,0,0,0,.82-.07l.22-.12a2.8,2.8,0,0,0,.64-.44,1.34,1.34,0,0,0,.41-.86A1.46,1.46,0,0,0,76,247a1.41,1.41,0,0,0-.4-.25,1.56,1.56,0,0,0-1.73.46,1.93,1.93,0,0,0-.42.72,1.34,1.34,0,0,0-.11.39,1,1,0,0,0,.11.64l-2.18,1.34-.2.13A6.77,6.77,0,0,0,69.23,249l.66-1.58.42-1a1.74,1.74,0,0,0,.72,0,1.25,1.25,0,0,0,.69-.44,1.43,1.43,0,0,0,.14-.2,2.4,2.4,0,0,0,.36-.69,1.3,1.3,0,0,0,0-.95,1.49,1.49,0,0,0-1.21-.87,1.44,1.44,0,0,0-.46,0,1.55,1.55,0,0,0-1.32,1.21,2.11,2.11,0,0,0,0,.83,1.77,1.77,0,0,0,.08.4,1,1,0,0,0,.4.51l-1.31,2.2-.1.17a6.92,6.92,0,0,0-2.33-.42l-.15-1.73-.09-1.08a1.88,1.88,0,0,0,.64-.34,1.25,1.25,0,0,0,.41-.7,2.42,2.42,0,0,0,0-.25,2.55,2.55,0,0,0,0-.78,1.31,1.31,0,0,0-.46-.83,1.48,1.48,0,0,0-1.46-.22,1.27,1.27,0,0,0-.43.18,1.55,1.55,0,0,0-.62,1.68,1.94,1.94,0,0,0,.34.76,1.59,1.59,0,0,0,.26.32,1,1,0,0,0,.58.27l-.15,2.56v.25a6.66,6.66,0,0,0-2.56,1l-1.1-1.53-.63-.88a1.75,1.75,0,0,0,.37-.61,1.28,1.28,0,0,0,0-.82,1.6,1.6,0,0,0-.1-.23,2.8,2.8,0,0,0-.39-.67,1.3,1.3,0,0,0-.83-.47,1.48,1.48,0,0,0-1.37.56,1.46,1.46,0,0,0-.27.38,1.55,1.55,0,0,0,.33,1.76,2,2,0,0,0,.68.47,1.74,1.74,0,0,0,.38.14,1,1,0,0,0,.65-.07l1.18,2.28c.06.12.13.24.19.37a6.77,6.77,0,0,0-1.39,1.71l-1.84-.94-1-.49a1.71,1.71,0,0,0,0-.71,1.24,1.24,0,0,0-.38-.72,1.4,1.4,0,0,0-.2-.16,2.69,2.69,0,0,0-.66-.41,1.3,1.3,0,0,0-1-.05,1.51,1.51,0,0,0-1,1.13,1.49,1.49,0,0,0-.07.47A1.59,1.59,0,0,0,55.05,251a1.94,1.94,0,0,0,.83.1,1.83,1.83,0,0,0,.4,0,1,1,0,0,0,.54-.36l2.09,1.48.51.35a6.92,6.92,0,0,0-.42,2l-2.26,0H55.66a2.1,2.1,0,0,0-.28-.65,1.34,1.34,0,0,0-.68-.47l-.25,0a2.51,2.51,0,0,0-.77-.06,1.31,1.31,0,0,0-.86.4,1.46,1.46,0,0,0-.33,1.45,1.21,1.21,0,0,0,.15.44,1.56,1.56,0,0,0,1.63.74,2.05,2.05,0,0,0,.78-.29,1.5,1.5,0,0,0,.33-.23,1,1,0,0,0,.32-.56l2.54.34.81.11a6.77,6.77,0,0,0,.52,1.9l-.08,0-2.07,1.1-1,.5a2,2,0,0,0-.56-.45,1.33,1.33,0,0,0-.81-.1l-.24.07a2.55,2.55,0,0,0-.72.3,1.31,1.31,0,0,0-.58.75,1.77,1.77,0,0,0,.71,1.76,1.55,1.55,0,0,0,1.79-.09,2,2,0,0,0,.56-.62,1.7,1.7,0,0,0,.19-.35,1,1,0,0,0,0-.65l2.41-.87.91-.32a7,7,0,0,0,1.26,1.41l-.11.16L60,262.26l-.62.89a1.68,1.68,0,0,0-.7-.14,1.28,1.28,0,0,0-.77.28c-.06.06-.12.11-.18.18a2.75,2.75,0,0,0-.49.59A1.34,1.34,0,0,0,57,265a1.49,1.49,0,0,0,1,1.1,1.39,1.39,0,0,0,.44.13,1.57,1.57,0,0,0,1.55-.91,2.16,2.16,0,0,0,.22-.8,2.81,2.81,0,0,0,0-.41,1,1,0,0,0-.28-.58l1.74-1.88.71-.76a6.78,6.78,0,0,0,1.71.71l0,.21-.3,2.32c0,.36-.09.72-.13,1.07a1.83,1.83,0,0,0-.69.2,1.23,1.23,0,0,0-.55.6,2.25,2.25,0,0,0-.08.24,2.6,2.6,0,0,0-.17.76,1.3,1.3,0,0,0,.28.91,1.5,1.5,0,0,0,1.39.52,1.22,1.22,0,0,0,.46-.09,1.55,1.55,0,0,0,1-1.52,1.91,1.91,0,0,0-.18-.81,1.52,1.52,0,0,0-.18-.36,1,1,0,0,0-.52-.39c.23-.82.45-1.65.68-2.47l.27-1a4.87,4.87,0,0,0,.54,0,6.55,6.55,0,0,0,1.34-.13l.05.14.81,2.19.37,1a1.84,1.84,0,0,0-.52.48,1.32,1.32,0,0,0-.21.8,2.17,2.17,0,0,0,0,.25,2.77,2.77,0,0,0,.2.75,1.29,1.29,0,0,0,.67.67,1.49,1.49,0,0,0,1.47-.17,1.76,1.76,0,0,0,.37-.29,1.57,1.57,0,0,0,.14-1.79,1.91,1.91,0,0,0-.53-.64,1.5,1.5,0,0,0-.33-.23.91.91,0,0,0-.64-.11c-.18-.84-.35-1.67-.53-2.51l-.19-.9a7.1,7.1,0,0,0,1.7-1L71.8,262l.81.73a1.55,1.55,0,0,0-.24.67,1.25,1.25,0,0,0,.18.8l.14.21a2.87,2.87,0,0,0,.53.57,1.33,1.33,0,0,0,.9.29,1.5,1.5,0,0,0,1.23-.83,1.66,1.66,0,0,0,.19-.43,1.56,1.56,0,0,0-.69-1.65,2.19,2.19,0,0,0-.77-.33,1.83,1.83,0,0,0-.4-.05,1,1,0,0,0-.62.2l-1.63-2-.48-.58a6.64,6.64,0,0,0,1.15-1.72l2.07.55,1,.28a1.7,1.7,0,0,0,.1.71,1.22,1.22,0,0,0,.52.62l.23.12a2.77,2.77,0,0,0,.73.26,1.35,1.35,0,0,0,.94-.15,1.51,1.51,0,0,0,.7-1.31,1.25,1.25,0,0,0,0-.47A1.55,1.55,0,0,0,77,257.33a1.94,1.94,0,0,0-.83.06,1.64,1.64,0,0,0-.39.14.92.92,0,0,0-.45.46L73,257l-.51-.21a6.84,6.84,0,0,0,.25-1.82c0-.12,0-.24,0-.36l1.89-.42,1.06-.24a1.92,1.92,0,0,0,.42.59,1.29,1.29,0,0,0,.75.31h.26a2.52,2.52,0,0,0,.77-.11,1.33,1.33,0,0,0,.76-.56A1.52,1.52,0,0,0,78.67,252.67Z" transform="translate(-52.26 -36.92)"/><path class="cls-1" d="M356.19,58.32a2,2,0,0,0-.33-.57,2.2,2.2,0,0,0-2.45-.54,2.85,2.85,0,0,0-1,.62,2.21,2.21,0,0,0-.39.42,1.33,1.33,0,0,0-.27.86l-3.58.27-.51,0a9.73,9.73,0,0,0-1.21-3l1.92-1.61,1.17-1a2.37,2.37,0,0,0,.89.46,1.79,1.79,0,0,0,1.14-.1,3.07,3.07,0,0,0,.31-.17,3.54,3.54,0,0,0,.89-.62,1.78,1.78,0,0,0,.58-1.2,2,2,0,0,0-.93-1.85,1.77,1.77,0,0,0-.55-.35,2.19,2.19,0,0,0-2.43.65,2.88,2.88,0,0,0-.59,1,2.14,2.14,0,0,0-.15.55,1.34,1.34,0,0,0,.16.89L345.82,55l-.29.17A9.55,9.55,0,0,0,343,53.1l.93-2.22c.19-.46.39-.93.58-1.4a2.64,2.64,0,0,0,1,0,1.77,1.77,0,0,0,1-.62,1.87,1.87,0,0,0,.2-.29,3.7,3.7,0,0,0,.51-1,1.8,1.8,0,0,0,0-1.33,2.07,2.07,0,0,0-1.68-1.22,1.79,1.79,0,0,0-.65-.05,2.18,2.18,0,0,0-1.86,1.69,3,3,0,0,0-.06,1.16,2.66,2.66,0,0,0,.12.56,1.39,1.39,0,0,0,.55.72l-1.84,3.08-.14.23a9.47,9.47,0,0,0-3.26-.58c-.07-.81-.14-1.62-.2-2.43-.05-.51-.09-1-.13-1.51a2.81,2.81,0,0,0,.89-.47,1.75,1.75,0,0,0,.57-1,2.27,2.27,0,0,0,.05-.35,3.32,3.32,0,0,0,0-1.09,1.78,1.78,0,0,0-.64-1.16,2.08,2.08,0,0,0-2.06-.31,2.12,2.12,0,0,0-.6.25,2.18,2.18,0,0,0-.86,2.36,2.68,2.68,0,0,0,.48,1.06,2.17,2.17,0,0,0,.36.44,1.43,1.43,0,0,0,.82.39l-.22,3.58,0,.35a9.56,9.56,0,0,0-3.59,1.34l-1.53-2.13L330.73,50a2.53,2.53,0,0,0,.53-.85,1.75,1.75,0,0,0,0-1.15,1.83,1.83,0,0,0-.14-.32,3.52,3.52,0,0,0-.55-.94A1.82,1.82,0,0,0,329.4,46a2.09,2.09,0,0,0-1.92.79,2,2,0,0,0-.39.53,2.18,2.18,0,0,0,.47,2.47,2.75,2.75,0,0,0,.95.66,2.06,2.06,0,0,0,.54.2,1.38,1.38,0,0,0,.9-.1l1.65,3.19.28.52a9.42,9.42,0,0,0-2,2.39l-2.57-1.31L326,54.69a2.66,2.66,0,0,0,.07-1,1.76,1.76,0,0,0-.54-1l-.28-.22a3.37,3.37,0,0,0-.92-.57,1.8,1.8,0,0,0-1.33-.07,2.11,2.11,0,0,0-1.34,1.59,2.05,2.05,0,0,0-.1.65,2.18,2.18,0,0,0,1.55,2,2.84,2.84,0,0,0,1.16.15,2.6,2.6,0,0,0,.56-.07,1.44,1.44,0,0,0,.76-.5l2.93,2.06.71.5a9.7,9.7,0,0,0-.58,2.86l-3.17,0H324a2.51,2.51,0,0,0-.39-.92,1.78,1.78,0,0,0-.95-.64,2,2,0,0,0-.35-.08,3.58,3.58,0,0,0-1.08-.08,1.84,1.84,0,0,0-1.21.55,2.11,2.11,0,0,0-.46,2,1.9,1.9,0,0,0,.21.62,2.18,2.18,0,0,0,2.29,1,2.77,2.77,0,0,0,1.09-.4,2.21,2.21,0,0,0,.47-.33,1.32,1.32,0,0,0,.44-.79l3.56.48,1.13.15a10,10,0,0,0,.73,2.67l-.11.06L326.43,67l-1.34.71a2.47,2.47,0,0,0-.78-.63,1.73,1.73,0,0,0-1.14-.14,1.33,1.33,0,0,0-.34.1,3.27,3.27,0,0,0-1,.42,1.83,1.83,0,0,0-.82,1,2.07,2.07,0,0,0,.53,2,1.83,1.83,0,0,0,.47.45,2.18,2.18,0,0,0,2.51-.13,2.68,2.68,0,0,0,.78-.86,2.42,2.42,0,0,0,.27-.5,1.5,1.5,0,0,0,0-.91L329,67.31l1.28-.46a9.22,9.22,0,0,0,1.76,2l-.16.23L330,71.75c-.29.41-.57.83-.86,1.25a2.62,2.62,0,0,0-1-.21,1.86,1.86,0,0,0-1.08.4,2,2,0,0,0-.25.25,3.43,3.43,0,0,0-.7.83,1.83,1.83,0,0,0-.24,1.31,2.05,2.05,0,0,0,1.39,1.54,2,2,0,0,0,.63.19A2.18,2.18,0,0,0,330.06,76a3.27,3.27,0,0,0,.31-1.7,1.35,1.35,0,0,0-.39-.81c.81-.88,1.62-1.76,2.44-2.63l1-1.07a9.56,9.56,0,0,0,2.4,1l0,.3c-.14,1.08-.28,2.16-.41,3.24l-.19,1.51a2.46,2.46,0,0,0-1,.27,1.77,1.77,0,0,0-.77.85,2,2,0,0,0-.12.34,3.87,3.87,0,0,0-.23,1.06,1.87,1.87,0,0,0,.39,1.27,2.09,2.09,0,0,0,1.95.73,2,2,0,0,0,.64-.12,2.21,2.21,0,0,0,1.34-2.13,3.42,3.42,0,0,0-.51-1.65,1.38,1.38,0,0,0-.73-.54l1-3.46c.12-.46.25-.92.38-1.38q.38,0,.75,0a9.75,9.75,0,0,0,1.88-.19l.07.19c.38,1,.75,2,1.13,3.07l.53,1.43a2.54,2.54,0,0,0-.74.68,1.8,1.8,0,0,0-.29,1.11c0,.12,0,.24.05.35a3.41,3.41,0,0,0,.29,1,1.8,1.8,0,0,0,.93,1,2.08,2.08,0,0,0,2.06-.25,1.57,1.57,0,0,0,.51-.41,2.17,2.17,0,0,0,.21-2.5,2.76,2.76,0,0,0-.74-.89,2.49,2.49,0,0,0-.47-.33,1.34,1.34,0,0,0-.89-.15L342,71.74l-.27-1.26a9.73,9.73,0,0,0,2.39-1.36l2.41,2.2,1.13,1a2.48,2.48,0,0,0-.34.94,1.76,1.76,0,0,0,.26,1.12,3,3,0,0,0,.2.29,3.52,3.52,0,0,0,.74.8,1.81,1.81,0,0,0,1.26.41,2.09,2.09,0,0,0,1.72-1.17,2,2,0,0,0-.7-2.91,2.79,2.79,0,0,0-1.08-.45,2.1,2.1,0,0,0-.56-.08,1.34,1.34,0,0,0-.86.27l-2.28-2.76-.68-.82A9.58,9.58,0,0,0,347,65.58l2.9.77,1.47.39a2.5,2.5,0,0,0,.13,1,1.78,1.78,0,0,0,.74.88,2.39,2.39,0,0,0,.32.16,3.47,3.47,0,0,0,1,.37,1.81,1.81,0,0,0,1.31-.21,2.52,2.52,0,0,0,.95-2.49,2.19,2.19,0,0,0-1.93-1.61,2.88,2.88,0,0,0-1.16.1,2,2,0,0,0-.53.19,1.37,1.37,0,0,0-.64.64l-3.3-1.41-.72-.3a9.34,9.34,0,0,0,.34-2.55c0-.17,0-.34,0-.5l2.66-.59,1.48-.33a2.7,2.7,0,0,0,.58.82,1.75,1.75,0,0,0,1.06.43,2.16,2.16,0,0,0,.36,0,3.5,3.5,0,0,0,1.07-.14,1.8,1.8,0,0,0,1.07-.8A2.07,2.07,0,0,0,356.19,58.32Z" transform="translate(-52.26 -36.92)"/><path class="cls-1" d="M389.48,347.79a2.25,2.25,0,0,0-.38-.63,2.45,2.45,0,0,0-2.77-.61,2.94,2.94,0,0,0-1.12.7,2.82,2.82,0,0,0-.44.47,1.53,1.53,0,0,0-.3,1l-4.05.31-.58,0a10.82,10.82,0,0,0-1.37-3.37l2.17-1.81,1.32-1.11a2.78,2.78,0,0,0,1,.52,2,2,0,0,0,1.29-.11,3,3,0,0,0,.36-.19,4.23,4.23,0,0,0,1-.7,2.06,2.06,0,0,0,.65-1.36,2.35,2.35,0,0,0-1-2.1,2,2,0,0,0-.63-.39,2.47,2.47,0,0,0-2.74.73,3.27,3.27,0,0,0-.67,1.14,3.38,3.38,0,0,0-.18.62,1.64,1.64,0,0,0,.18,1l-3.45,2.13-.32.2a11.16,11.16,0,0,0-2.89-2.36l1-2.51.66-1.58a2.91,2.91,0,0,0,1.14,0,1.92,1.92,0,0,0,1.09-.69,3.29,3.29,0,0,0,.23-.33,3.92,3.92,0,0,0,.57-1.09,2.07,2.07,0,0,0,0-1.51,2.36,2.36,0,0,0-1.9-1.38,2,2,0,0,0-.74-.05,2.46,2.46,0,0,0-2.1,1.91,3.26,3.26,0,0,0-.07,1.32,2.71,2.71,0,0,0,.13.63,1.6,1.6,0,0,0,.63.81c-.69,1.16-1.39,2.32-2.08,3.49l-.16.26a11,11,0,0,0-3.69-.66c-.08-.92-.15-1.83-.23-2.75-.05-.57-.09-1.14-.14-1.71a3,3,0,0,0,1-.53,2,2,0,0,0,.65-1.12,1.75,1.75,0,0,0,.05-.4,3.9,3.9,0,0,0,0-1.23,2.06,2.06,0,0,0-.73-1.31,2.34,2.34,0,0,0-2.33-.35,1.94,1.94,0,0,0-.68.29,2.47,2.47,0,0,0-1,2.66,3.2,3.2,0,0,0,.55,1.2,2.2,2.2,0,0,0,.4.5,1.61,1.61,0,0,0,.93.44l-.24,4.05,0,.4a10.77,10.77,0,0,0-4.06,1.52l-1.74-2.42-1-1.4a2.87,2.87,0,0,0,.6-1,2,2,0,0,0,0-1.29c-.05-.13-.1-.25-.16-.37a4.5,4.5,0,0,0-.63-1.06,2,2,0,0,0-1.3-.75,2.39,2.39,0,0,0-2.18.89,2.35,2.35,0,0,0-.43.6,2.47,2.47,0,0,0,.52,2.79,3.32,3.32,0,0,0,1.09.75,2.54,2.54,0,0,0,.6.22,1.6,1.6,0,0,0,1-.1c.63,1.2,1.25,2.4,1.87,3.6.11.19.21.39.31.59a11.08,11.08,0,0,0-2.21,2.7l-2.91-1.48-1.54-.77a3,3,0,0,0,.09-1.14,2,2,0,0,0-.62-1.14,2.42,2.42,0,0,0-.31-.25,4,4,0,0,0-1-.65,2,2,0,0,0-1.51-.07,2.93,2.93,0,0,0-1.63,2.52,2.47,2.47,0,0,0,1.76,2.24,3.36,3.36,0,0,0,1.31.17,2.66,2.66,0,0,0,.63-.09,1.52,1.52,0,0,0,.86-.56l3.32,2.33.8.57a11.11,11.11,0,0,0-.66,3.23l-3.58,0H353a2.94,2.94,0,0,0-.45-1,2,2,0,0,0-1.07-.73,1.8,1.8,0,0,0-.39-.08,3.94,3.94,0,0,0-1.23-.1,2.06,2.06,0,0,0-1.36.63,2.39,2.39,0,0,0-.53,2.29,2.08,2.08,0,0,0,.24.7,2.48,2.48,0,0,0,2.59,1.18,3.38,3.38,0,0,0,1.24-.45,2.86,2.86,0,0,0,.52-.37,1.65,1.65,0,0,0,.51-.9l4,.54,1.28.18a10.49,10.49,0,0,0,.83,3l-.13.07-3.27,1.73-1.52.81a2.64,2.64,0,0,0-.88-.72,2,2,0,0,0-1.29-.16l-.38.11a4.05,4.05,0,0,0-1.13.48,2.05,2.05,0,0,0-.93,1.19,2.36,2.36,0,0,0,.6,2.27,2,2,0,0,0,.53.52,2.49,2.49,0,0,0,2.84-.15,3.31,3.31,0,0,0,.89-1,3.1,3.1,0,0,0,.3-.57,1.59,1.59,0,0,0,0-1l3.82-1.37,1.44-.52a10.91,10.91,0,0,0,2,2.24l-.18.25-2.1,3.05-1,1.41a2.83,2.83,0,0,0-1.11-.23,2,2,0,0,0-1.21.46,1.86,1.86,0,0,0-.29.27,4.16,4.16,0,0,0-.79.94,2.1,2.1,0,0,0-.27,1.49,2.34,2.34,0,0,0,1.58,1.74,2.18,2.18,0,0,0,.7.21,2.46,2.46,0,0,0,2.45-1.44,3.09,3.09,0,0,0,.35-1.27,2.74,2.74,0,0,0,0-.64,1.59,1.59,0,0,0-.44-.93l2.75-3,1.13-1.21a10.68,10.68,0,0,0,2.72,1.12l0,.34c-.16,1.22-.31,2.44-.47,3.67l-.21,1.7a2.91,2.91,0,0,0-1.1.31,2,2,0,0,0-.87,1c-.05.13-.09.25-.13.38a3.91,3.91,0,0,0-.26,1.2,2.08,2.08,0,0,0,.44,1.44,2.36,2.36,0,0,0,2.2.83,2.55,2.55,0,0,0,.73-.14,2.48,2.48,0,0,0,1.51-2.41,3.26,3.26,0,0,0-.28-1.29,2.59,2.59,0,0,0-.3-.57,1.58,1.58,0,0,0-.81-.62c.35-1.3.71-2.61,1.07-3.91.15-.52.29-1,.43-1.57a8.25,8.25,0,0,0,.86,0,10.59,10.59,0,0,0,2.12-.21l.08.21,1.28,3.48.59,1.61a3.21,3.21,0,0,0-.83.77,2.07,2.07,0,0,0-.32,1.26c0,.13,0,.26.05.4a4,4,0,0,0,.33,1.18,2.05,2.05,0,0,0,1.05,1.08,2.35,2.35,0,0,0,2.33-.29,2,2,0,0,0,.58-.45,2.49,2.49,0,0,0,.24-2.84,3.16,3.16,0,0,0-.85-1,2.35,2.35,0,0,0-.52-.37,1.51,1.51,0,0,0-1-.17c-.28-1.33-.57-2.65-.85-4l-.3-1.43a11.07,11.07,0,0,0,2.7-1.53l2.73,2.49,1.27,1.16a3,3,0,0,0-.38,1.07,2,2,0,0,0,.29,1.26,3.88,3.88,0,0,0,.23.33,4.19,4.19,0,0,0,.83.9,2.08,2.08,0,0,0,1.43.47,2.39,2.39,0,0,0,2-1.33,2,2,0,0,0,.3-.67,2.48,2.48,0,0,0-1.1-2.62,3.1,3.1,0,0,0-1.21-.51,2.35,2.35,0,0,0-.64-.09,1.57,1.57,0,0,0-1,.31c-.86-1-1.72-2.08-2.57-3.13l-.77-.92a11,11,0,0,0,1.83-2.73l3.27.87,1.66.44a3,3,0,0,0,.16,1.13,2,2,0,0,0,.84,1,2.31,2.31,0,0,0,.35.18,4,4,0,0,0,1.16.42,2.07,2.07,0,0,0,1.48-.24,2.39,2.39,0,0,0,1.12-2.07,2.29,2.29,0,0,0-.05-.74,2.46,2.46,0,0,0-2.18-1.82,3.07,3.07,0,0,0-1.31.1,2.61,2.61,0,0,0-.61.22,1.59,1.59,0,0,0-.72.73l-3.73-1.6-.81-.34a10.94,10.94,0,0,0,.39-2.88c0-.19,0-.38,0-.57l3-.67,1.68-.37a2.75,2.75,0,0,0,.65.92,2,2,0,0,0,1.2.5,1.79,1.79,0,0,0,.4,0,4.13,4.13,0,0,0,1.22-.15,2.15,2.15,0,0,0,1.21-.9A2.39,2.39,0,0,0,389.48,347.79Z" transform="translate(-52.26 -36.92)"/><path class="cls-1" d="M444,196a1.27,1.27,0,0,0-.2-.34,1.32,1.32,0,0,0-1.49-.33,1.77,1.77,0,0,0-.6.37,1.48,1.48,0,0,0-.24.26.78.78,0,0,0-.16.52l-2.17.17-.32,0a5.74,5.74,0,0,0-.73-1.81l1.17-1,.7-.59a1.51,1.51,0,0,0,.55.28,1.1,1.1,0,0,0,.69-.06l.19-.1a2.1,2.1,0,0,0,.54-.38,1.12,1.12,0,0,0,.35-.73,1.27,1.27,0,0,0-.56-1.13,1.2,1.2,0,0,0-.34-.21,1.33,1.33,0,0,0-1.47.4,1.57,1.57,0,0,0-.36.61,1.39,1.39,0,0,0-.1.33.83.83,0,0,0,.1.54L437.7,194l-.17.11a5.8,5.8,0,0,0-1.56-1.27c.19-.45.38-.9.56-1.35l.36-.85a1.57,1.57,0,0,0,.61,0,1,1,0,0,0,.58-.38,1.09,1.09,0,0,0,.13-.17,2.19,2.19,0,0,0,.3-.59,1.08,1.08,0,0,0,0-.81,1.28,1.28,0,0,0-1-.74,1.25,1.25,0,0,0-1.52,1,1.69,1.69,0,0,0,0,.71,1.37,1.37,0,0,0,.07.34.82.82,0,0,0,.34.43l-1.12,1.87-.08.14a6,6,0,0,0-2-.35l-.12-1.48-.08-.91a1.65,1.65,0,0,0,.54-.29,1.08,1.08,0,0,0,.35-.6,1.52,1.52,0,0,0,0-.21,2.43,2.43,0,0,0,0-.66,1.1,1.1,0,0,0-.39-.71,1.28,1.28,0,0,0-1.25-.19,1.17,1.17,0,0,0-.36.16,1.31,1.31,0,0,0-.53,1.43,1.76,1.76,0,0,0,.29.64,1.44,1.44,0,0,0,.22.27.85.85,0,0,0,.5.23l-.13,2.18v.21a5.87,5.87,0,0,0-2.18.82l-.94-1.3-.53-.75a1.74,1.74,0,0,0,.32-.52,1.16,1.16,0,0,0,0-.69l-.09-.2a2.05,2.05,0,0,0-.34-.57,1.07,1.07,0,0,0-.7-.4,1.24,1.24,0,0,0-1.16.48,1.08,1.08,0,0,0-.24.32,1.32,1.32,0,0,0,.29,1.49,1.61,1.61,0,0,0,.58.41,1.75,1.75,0,0,0,.32.12.86.86,0,0,0,.55-.06l1,1.93.17.32A6.14,6.14,0,0,0,428,195l-1.56-.79-.83-.42a1.41,1.41,0,0,0,.05-.61,1.11,1.11,0,0,0-.33-.61l-.17-.14a2.15,2.15,0,0,0-.56-.34,1.08,1.08,0,0,0-.81,0,1.28,1.28,0,0,0-.81,1,1.25,1.25,0,0,0,.88,1.59,1.65,1.65,0,0,0,.7.09,1.27,1.27,0,0,0,.34,0,.89.89,0,0,0,.47-.3l1.78,1.25.43.3a5.92,5.92,0,0,0-.36,1.74l-1.92,0h-.92a1.76,1.76,0,0,0-.24-.56,1.08,1.08,0,0,0-.58-.4l-.21,0a2.08,2.08,0,0,0-.66,0,1.07,1.07,0,0,0-.73.34,1.26,1.26,0,0,0-.28,1.23,1,1,0,0,0,.13.37,1.3,1.3,0,0,0,1.38.63,1.64,1.64,0,0,0,.67-.24,1.1,1.1,0,0,0,.28-.2.81.81,0,0,0,.27-.48l2.16.29.69.1a5.72,5.72,0,0,0,.44,1.61l-.06,0-1.76.93-.82.43a1.57,1.57,0,0,0-.47-.38,1,1,0,0,0-.69-.08l-.21.05a2.48,2.48,0,0,0-.6.26,1.14,1.14,0,0,0-.5.64,1.25,1.25,0,0,0,.32,1.22,1.28,1.28,0,0,0,.29.28,1.33,1.33,0,0,0,1.52-.08,1.74,1.74,0,0,0,.48-.53,1.43,1.43,0,0,0,.16-.3.87.87,0,0,0,0-.55l2.05-.74.77-.28a5.58,5.58,0,0,0,1.07,1.2l-.1.14-1.12,1.64-.53.76a1.58,1.58,0,0,0-.6-.13,1.08,1.08,0,0,0-.65.25,1,1,0,0,0-.15.14,2.29,2.29,0,0,0-.43.51,1.12,1.12,0,0,0-.14.8,1.24,1.24,0,0,0,.84.93,1.29,1.29,0,0,0,.38.12,1.34,1.34,0,0,0,1.32-.78,1.56,1.56,0,0,0,.18-.68,1.37,1.37,0,0,0,0-.35.84.84,0,0,0-.24-.49l1.48-1.6.6-.65a5.68,5.68,0,0,0,1.46.6l0,.18c-.08.66-.17,1.32-.25,2l-.12.91a1.44,1.44,0,0,0-.58.17,1.11,1.11,0,0,0-.47.51,1.72,1.72,0,0,0-.07.21,2,2,0,0,0-.14.64,1.08,1.08,0,0,0,.24.77,1.28,1.28,0,0,0,1.18.45,1.36,1.36,0,0,0,.39-.08,1.34,1.34,0,0,0,.81-1.29,1.65,1.65,0,0,0-.15-.69,1.3,1.3,0,0,0-.16-.31.8.8,0,0,0-.44-.33c.19-.7.39-1.4.58-2.1l.23-.84.46,0a5.38,5.38,0,0,0,1.14-.12l0,.12.69,1.86.32.87a1.63,1.63,0,0,0-.45.42,1,1,0,0,0-.17.67.76.76,0,0,0,0,.21,2,2,0,0,0,.17.64,1.11,1.11,0,0,0,.57.58,1.28,1.28,0,0,0,1.25-.16,1,1,0,0,0,.31-.24,1.33,1.33,0,0,0,.13-1.52,1.73,1.73,0,0,0-.46-.55,2,2,0,0,0-.28-.2.87.87,0,0,0-.54-.09c-.15-.71-.3-1.42-.46-2.13l-.16-.77a5.6,5.6,0,0,0,1.45-.82l1.47,1.34.68.62a1.54,1.54,0,0,0-.2.58,1.06,1.06,0,0,0,.15.67,1.18,1.18,0,0,0,.13.18,2.25,2.25,0,0,0,.44.48,1.09,1.09,0,0,0,.77.26,1.26,1.26,0,0,0,1-.72,1.19,1.19,0,0,0,.17-.36,1.33,1.33,0,0,0-.59-1.4,1.57,1.57,0,0,0-.65-.28,1.41,1.41,0,0,0-.35,0,.85.85,0,0,0-.52.17l-1.39-1.68-.4-.5a5.8,5.8,0,0,0,1-1.46l1.76.47.89.24a1.75,1.75,0,0,0,.09.6,1.06,1.06,0,0,0,.45.53l.19.1a2,2,0,0,0,.62.22,1.07,1.07,0,0,0,.8-.13,1.25,1.25,0,0,0,.59-1.11,1.08,1.08,0,0,0,0-.4,1.33,1.33,0,0,0-1.17-1,1.65,1.65,0,0,0-.7.05,1.61,1.61,0,0,0-.33.12.82.82,0,0,0-.39.39l-2-.85-.44-.19a5.63,5.63,0,0,0,.21-1.55c0-.1,0-.2,0-.3l1.62-.36.9-.2a1.61,1.61,0,0,0,.35.5,1.17,1.17,0,0,0,.65.26.74.74,0,0,0,.21,0,2.32,2.32,0,0,0,.65-.09,1.06,1.06,0,0,0,.65-.48A1.26,1.26,0,0,0,444,196Z" transform="translate(-52.26 -36.92)"/><path class="cls-1" d="M89.68,149.56a2.12,2.12,0,0,0-.33-.56,2.18,2.18,0,0,0-2.46-.54,2.8,2.8,0,0,0-1,.62,2.46,2.46,0,0,0-.38.41,1.36,1.36,0,0,0-.27.87l-3.58.27-.51,0a9.63,9.63,0,0,0-1.21-3l1.92-1.61,1.16-1a2.9,2.9,0,0,0,.89.46,2,2,0,0,0,1.46-.27,3.73,3.73,0,0,0,.89-.62,1.85,1.85,0,0,0,.58-1.2,2.1,2.1,0,0,0-.93-1.86,1.74,1.74,0,0,0-.55-.34,2.18,2.18,0,0,0-2.43.64,2.86,2.86,0,0,0-.59,1,2.16,2.16,0,0,0-.16.55,1.49,1.49,0,0,0,.16.89l-3,1.89-.28.17a9.78,9.78,0,0,0-2.56-2.09c.31-.73.62-1.47.92-2.21.2-.47.39-.94.59-1.4a2.41,2.41,0,0,0,1,0,1.76,1.76,0,0,0,1-.61,3,3,0,0,0,.2-.29,3.76,3.76,0,0,0,.51-1,1.85,1.85,0,0,0,0-1.33,2.1,2.1,0,0,0-1.68-1.22,2,2,0,0,0-.65-.05,2.19,2.19,0,0,0-1.86,1.7,2.82,2.82,0,0,0-.06,1.16,2.64,2.64,0,0,0,.11.56,1.38,1.38,0,0,0,.56.71l-1.84,3.08-.14.24a9.32,9.32,0,0,0-3.26-.58l-.21-2.43-.12-1.52a2.6,2.6,0,0,0,.89-.46,1.78,1.78,0,0,0,.57-1,2,2,0,0,0,0-.35,3.91,3.91,0,0,0,0-1.08,1.85,1.85,0,0,0-.64-1.17,2.11,2.11,0,0,0-2.06-.31,1.89,1.89,0,0,0-.6.26,2.2,2.2,0,0,0-.87,2.36,3.07,3.07,0,0,0,.48,1.06,3.13,3.13,0,0,0,.36.44,1.36,1.36,0,0,0,.82.38l-.21,3.58,0,.35a9.68,9.68,0,0,0-3.59,1.35l-1.53-2.14-.89-1.23a2.57,2.57,0,0,0,.53-.86,1.78,1.78,0,0,0,0-1.14,3.27,3.27,0,0,0-.14-.33A3.74,3.74,0,0,0,64,138a1.87,1.87,0,0,0-1.15-.67,2.09,2.09,0,0,0-1.93.79,1.66,1.66,0,0,0-.38.53,2.18,2.18,0,0,0,.46,2.46,2.82,2.82,0,0,0,1,.67,2.47,2.47,0,0,0,.54.19,1.32,1.32,0,0,0,.9-.09L65.09,145l.27.53a9.59,9.59,0,0,0-2,2.39l-2.58-1.31-1.35-.69a2.61,2.61,0,0,0,.07-1,1.79,1.79,0,0,0-.54-1,1.93,1.93,0,0,0-.28-.22,3.4,3.4,0,0,0-.92-.58,1.85,1.85,0,0,0-1.33-.06,2.07,2.07,0,0,0-1.34,1.59,1.72,1.72,0,0,0-.1.64,2.19,2.19,0,0,0,1.55,2,3,3,0,0,0,1.16.15,2.61,2.61,0,0,0,.56-.08,1.38,1.38,0,0,0,.76-.5L62,148.91l.71.5a9.63,9.63,0,0,0-.58,2.86l-3.17,0H57.44a2.44,2.44,0,0,0-.39-.92,1.8,1.8,0,0,0-.95-.65,2.17,2.17,0,0,0-.35-.07,4,4,0,0,0-1.08-.09,1.85,1.85,0,0,0-1.21.56,2.1,2.1,0,0,0-.46,2,1.75,1.75,0,0,0,.21.62,2.2,2.2,0,0,0,2.28,1,2.92,2.92,0,0,0,1.1-.4,2.64,2.64,0,0,0,.47-.33,1.43,1.43,0,0,0,.44-.79l3.55.48,1.14.15a9.11,9.11,0,0,0,.73,2.66l-.11.06-2.89,1.54-1.35.71a2.61,2.61,0,0,0-.77-.64,1.86,1.86,0,0,0-1.14-.14l-.34.1a3.71,3.71,0,0,0-1,.42,1.86,1.86,0,0,0-.82,1,2.1,2.1,0,0,0,.52,2,2.06,2.06,0,0,0,.48.45A2.17,2.17,0,0,0,58,162a2.83,2.83,0,0,0,.79-.86,2,2,0,0,0,.26-.51,1.33,1.33,0,0,0,0-.9l3.38-1.21,1.28-.46a9.71,9.71,0,0,0,1.75,2l-.15.22L63.48,163l-.86,1.25a2.65,2.65,0,0,0-1-.2,1.75,1.75,0,0,0-1.07.4,3,3,0,0,0-.26.24,3.48,3.48,0,0,0-.69.84,1.82,1.82,0,0,0-.24,1.31,2.09,2.09,0,0,0,1.39,1.54,2,2,0,0,0,.63.19,2.17,2.17,0,0,0,2.16-1.28,2.68,2.68,0,0,0,.31-1.12,2.71,2.71,0,0,0,0-.57,1.41,1.41,0,0,0-.39-.82l2.43-2.63,1-1.07a9.59,9.59,0,0,0,2.4,1l0,.29-.41,3.25c-.06.5-.12,1-.19,1.51a2.46,2.46,0,0,0-1,.27,1.72,1.72,0,0,0-.77.85,2.19,2.19,0,0,0-.12.33,3.6,3.6,0,0,0-.23,1.06,1.86,1.86,0,0,0,.39,1.28,2.08,2.08,0,0,0,2,.72,1.73,1.73,0,0,0,.64-.12,2.16,2.16,0,0,0,1.33-2.12,2.78,2.78,0,0,0-.24-1.14,3.06,3.06,0,0,0-.26-.51,1.46,1.46,0,0,0-.73-.55c.32-1.15.64-2.3,1-3.45.13-.46.26-.93.38-1.39.25,0,.51,0,.76,0a9.74,9.74,0,0,0,1.88-.18l.07.19c.37,1,.75,2,1.13,3.07l.52,1.42a2.67,2.67,0,0,0-.73.69,1.8,1.8,0,0,0-.29,1.11c0,.11,0,.23,0,.35a3.63,3.63,0,0,0,.28,1,1.78,1.78,0,0,0,.94,1,2.08,2.08,0,0,0,2.06-.24,2,2,0,0,0,.51-.41,2.17,2.17,0,0,0,.21-2.5,2.82,2.82,0,0,0-.75-.9,2.15,2.15,0,0,0-.46-.33,1.4,1.4,0,0,0-.89-.15L75.53,163l-.27-1.26a9.88,9.88,0,0,0,2.39-1.35l2.41,2.2,1.12,1a2.76,2.76,0,0,0-.33.95,1.77,1.77,0,0,0,.25,1.12,1.86,1.86,0,0,0,.21.28,3.5,3.5,0,0,0,.73.8,1.84,1.84,0,0,0,1.27.42A2.08,2.08,0,0,0,85,166a1.79,1.79,0,0,0,.27-.6,2.18,2.18,0,0,0-1-2.32,2.9,2.9,0,0,0-1.07-.45,2.8,2.8,0,0,0-.56-.08,1.44,1.44,0,0,0-.87.28l-2.28-2.77-.67-.81a9.63,9.63,0,0,0,1.61-2.42l2.9.78,1.46.39a2.73,2.73,0,0,0,.14,1,1.82,1.82,0,0,0,.74.88L86,160a3.78,3.78,0,0,0,1,.37,1.82,1.82,0,0,0,1.31-.22,2.07,2.07,0,0,0,1-1.83,1.77,1.77,0,0,0,0-.65,2.18,2.18,0,0,0-1.93-1.61,2.85,2.85,0,0,0-1.16.09,3.13,3.13,0,0,0-.54.19,1.37,1.37,0,0,0-.63.65l-3.3-1.41-.72-.31a9.67,9.67,0,0,0,.34-2.54c0-.17,0-.34,0-.51l2.66-.59,1.48-.33a2.54,2.54,0,0,0,.58.82,1.74,1.74,0,0,0,1.06.44h.36a3.83,3.83,0,0,0,1.07-.14,1.83,1.83,0,0,0,1.07-.8A2.11,2.11,0,0,0,89.68,149.56Z" transform="translate(-52.26 -36.92)"/></g></svg>